<svg width="375" height="291" viewBox="0 0 375 291" fill="none" xmlns="http://www.w3.org/2000/svg">
<rect width="375" height="291" fill="#2C2C2C"/>
<g filter="url(#filter0_d_3_1869)">
<path d="M3 13C3 10.2386 5.23858 8 8 8H26.0909C28.8523 8 31.0909 10.2386 31.0909 13V45C31.0909 47.7614 28.8523 50 26.0909 50H8.00001C5.23858 50 3 47.7614 3 45V13Z" fill="#6B6B6B"/>
<path d="M17.1919 20.8643C19.5479 20.8643 20.9273 19.3384 20.9273 17.4097V17.373H19.1817V17.4341C19.1817 18.5205 18.4737 19.4482 17.2041 19.4482C15.8858 19.4482 15.2266 18.5205 15.2266 17.4341V17.373H13.481V17.4097C13.481 19.3384 14.8604 20.8643 17.1919 20.8643ZM11.7232 35H13.8228L20.146 25.564H20.2437V35H22.3677V22.3047H20.2681L13.9449 31.7407H13.8472V22.3047H11.7232V35Z" fill="white"/>
</g>
<g filter="url(#filter1_d_3_1869)">
<path d="M37.0908 13C37.0908 10.2386 39.3294 8 42.0908 8H60.1817C62.9431 8 65.1817 10.2386 65.1817 13V45C65.1817 47.7614 62.9432 50 60.1817 50H42.0908C39.3294 50 37.0908 47.7614 37.0908 45V13Z" fill="#6B6B6B"/>
<path d="M55.9092 38.479H57.8379V33.2422H55.8726V22.3047H53.7486V33.2422H47.6573V22.3047H45.521V35H55.9092V38.479Z" fill="white"/>
</g>
<g filter="url(#filter2_d_3_1869)">
<path d="M71.1819 13C71.1819 10.2386 73.4205 8 76.1819 8H94.2728C97.0342 8 99.2728 10.2386 99.2728 13V45C99.2728 47.7614 97.0342 50 94.2728 50H76.1819C73.4205 50 71.1819 47.7614 71.1819 45V13Z" fill="#6B6B6B"/>
<path d="M81.7483 39.2725C84.0433 39.2725 85.1541 38.2227 86.0574 35.7935L91.0135 22.3047H88.7796L85.264 32.876H85.2151L81.7117 22.3047H79.4412L84.1531 35.0122L83.8968 35.7324C83.3841 37.1729 82.6394 37.5146 81.2967 37.5146C81.0403 37.5146 80.7962 37.478 80.6131 37.4414V39.1748C80.8816 39.2236 81.3333 39.2725 81.7483 39.2725Z" fill="white"/>
</g>
<g filter="url(#filter3_d_3_1869)">
<path d="M105.273 13C105.273 10.2386 107.511 8 110.273 8H128.364C131.125 8 133.364 10.2386 133.364 13V45C133.364 47.7614 131.125 50 128.364 50H110.273C107.511 50 105.273 47.7614 105.273 45V13Z" fill="#6B6B6B"/>
<path d="M117.353 29.1406L122.419 35H125.104L119.269 28.3105L124.933 22.3047H122.358L117.353 27.6758H116.865V22.3047H114.741V35H116.865V29.1406H117.353Z" fill="white"/>
</g>
<g filter="url(#filter4_d_3_1869)">
<path d="M139.364 13C139.364 10.2386 141.602 8 144.364 8H162.455C165.216 8 167.455 10.2386 167.455 13V45C167.455 47.7614 165.216 50 162.455 50H144.364C141.602 50 139.364 47.7614 139.364 45V13Z" fill="#6B6B6B"/>
<path d="M153.605 35.2441C156.376 35.2441 158.451 33.584 158.866 31.4844L158.89 31.3623H156.803L156.766 31.4722C156.4 32.5586 155.265 33.3643 153.653 33.3643C151.395 33.3643 149.955 31.8384 149.906 29.2261H159.049V28.4448C159.049 24.6362 156.937 22.0605 153.47 22.0605C150.003 22.0605 147.757 24.7583 147.757 28.689V28.7012C147.757 32.6929 149.955 35.2441 153.605 35.2441ZM153.458 23.9404C155.314 23.9404 156.681 25.1001 156.888 27.5659H149.942C150.174 25.1978 151.615 23.9404 153.458 23.9404Z" fill="white"/>
</g>
<g filter="url(#filter5_d_3_1869)">
<path d="M173.455 13C173.455 10.2386 175.693 8 178.455 8H196.545C199.307 8 201.545 10.2386 201.545 13V45C201.545 47.7614 199.307 50 196.545 50H178.455C175.693 50 173.455 47.7614 173.455 45V13Z" fill="#6B6B6B"/>
<path d="M190.601 35H192.725V22.3047H190.601V27.5415H184.387V22.3047H182.263V35H184.387V29.2993H190.601V35Z" fill="white"/>
</g>
<g filter="url(#filter6_d_3_1869)">
<path d="M207.545 13C207.545 10.2386 209.784 8 212.545 8H230.636C233.398 8 235.636 10.2386 235.636 13V45C235.636 47.7614 233.398 50 230.636 50H212.545C209.784 50 207.545 47.7614 207.545 45V13Z" fill="#6B6B6B"/>
<path d="M226.01 24.0625V22.3047H217.843V35H219.967V24.0625H226.01Z" fill="white"/>
</g>
<g filter="url(#filter7_d_3_1869)">
<path d="M241.636 13C241.636 10.2386 243.875 8 246.636 8H264.727C267.489 8 269.727 10.2386 269.727 13V45C269.727 47.7614 267.489 50 264.727 50H246.636C243.875 50 241.636 47.7614 241.636 45V13Z" fill="#6B6B6B"/>
<path d="M247.845 35H263.519V22.3047H261.395V33.2422H256.744V22.3047H254.62V33.2422H249.969V22.3047H247.845V35Z" fill="white"/>
</g>
<g filter="url(#filter8_d_3_1869)">
<path d="M275.727 13C275.727 10.2386 277.966 8 280.727 8H298.818C301.58 8 303.818 10.2386 303.818 13V45C303.818 47.7614 301.58 50 298.818 50H280.727C277.966 50 275.727 47.7614 275.727 45V13Z" fill="#6B6B6B"/>
<path d="M281.484 35H297.207V38.479H299.136V33.2422H297.158V22.3047H295.034V33.2422H290.383V22.3047H288.259V33.2422H283.608V22.3047H281.484V35Z" fill="white"/>
</g>
<g filter="url(#filter9_d_3_1869)">
<path d="M309.818 13C309.818 10.2386 312.057 8 314.818 8H332.909C335.67 8 337.909 10.2386 337.909 13V45C337.909 47.7614 335.67 50 332.909 50H314.818C312.057 50 309.818 47.7614 309.818 45V13Z" fill="#6B6B6B"/>
<path d="M323.778 35.2441C326.744 35.2441 328.734 33.6572 328.734 31.3013V31.2769C328.734 29.812 327.831 28.7988 326.195 28.4448V28.3472C327.489 28.0542 328.38 26.9189 328.38 25.564V25.5396C328.38 23.3911 326.683 22.0605 323.912 22.0605C321.276 22.0605 319.432 23.3789 319.139 25.4297L319.127 25.5151H321.19L321.202 25.4541C321.398 24.4653 322.46 23.8184 323.912 23.8184C325.414 23.8184 326.305 24.5264 326.305 25.7104V25.7349C326.305 26.9922 325.463 27.627 323.778 27.627H321.874V29.3848H323.778C325.719 29.3848 326.647 30.0195 326.647 31.3745V31.3989C326.647 32.6807 325.536 33.4863 323.778 33.4863C322.264 33.4863 321.251 32.8882 320.946 31.8262L320.909 31.7041H318.761L318.773 31.8018C319.03 33.877 321.019 35.2441 323.778 35.2441Z" fill="white"/>
</g>
<g filter="url(#filter10_d_3_1869)">
<path d="M343.909 13C343.909 10.2386 346.148 8 348.909 8H367C369.762 8 372 10.2386 372 13V45C372 47.7614 369.762 50 367 50H348.909C346.148 50 343.909 47.7614 343.909 45V13Z" fill="#6B6B6B"/>
<path d="M352.486 35H354.842L357.906 30.166H357.955L360.994 35H363.35L359.127 28.5669L363.411 22.3047H361.043L358.028 27.0654H357.979L354.927 22.3047H352.559L356.807 28.6523L352.486 35Z" fill="white"/>
</g>
<g filter="url(#filter11_d_3_1869)">
<path d="M3 67C3 64.2386 5.23858 62 8 62H26.0909C28.8523 62 31.0909 64.2386 31.0909 67V99C31.0909 101.761 28.8523 104 26.0909 104H8.00001C5.23858 104 3 101.761 3 99V67Z" fill="#6B6B6B"/>
<path d="M16.0201 93.2358H18.0708V89.1587C22.0015 89.0977 24.626 86.5708 24.626 82.6646V82.6401C24.626 78.7339 22.0015 76.2192 18.0708 76.146V72.1299H16.0201V76.146C12.065 76.207 9.45268 78.7339 9.45268 82.6401V82.6646C9.45268 86.5708 12.065 89.0854 16.0201 89.1587V93.2358ZM16.0201 87.3398C13.3101 87.2666 11.5889 85.5088 11.5889 82.6646V82.6401C11.5889 79.7837 13.3101 78.0259 16.0201 77.9648V87.3398ZM18.0708 87.3398V77.9648C20.7686 78.0381 22.4898 79.7959 22.4898 82.6401V82.6646C22.4898 85.521 20.7686 87.2788 18.0708 87.3398Z" fill="white"/>
</g>
<g filter="url(#filter12_d_3_1869)">
<path d="M37.0908 67C37.0908 64.2386 39.3294 62 42.0908 62H60.1817C62.9431 62 65.1817 64.2386 65.1817 67V99C65.1817 101.761 62.9432 104 60.1817 104H42.0908C39.3294 104 37.0908 101.761 37.0908 99V67Z" fill="#6B6B6B"/>
<path d="M44.6299 89H49.1343C52.0396 89 53.9073 87.3276 53.9073 84.6909V84.6665C53.9073 82.0298 52.0396 80.3574 49.1343 80.3574H46.754V76.3047H44.6299V89ZM55.5186 89H57.6426V76.3047H55.5186V89ZM49.0977 82.1152C50.709 82.1152 51.7344 83.1162 51.7344 84.6665V84.6909C51.7344 86.229 50.7212 87.2422 49.0977 87.2422H46.754V82.1152H49.0977Z" fill="white"/>
</g>
<g filter="url(#filter13_d_3_1869)">
<path d="M71.1819 67C71.1819 64.2386 73.4205 62 76.1819 62H94.2728C97.0342 62 99.2728 64.2386 99.2728 67V99C99.2728 101.761 97.0342 104 94.2728 104H76.1819C73.4205 104 71.1819 101.761 71.1819 99V67Z" fill="#6B6B6B"/>
<path d="M80.5887 89H86.0574C88.7552 89 90.4153 87.5962 90.4153 85.3623V85.3379C90.4153 83.7876 89.3655 82.6646 87.7664 82.4448V82.3472C88.9383 82.103 89.8538 80.9067 89.8538 79.6006V79.5762C89.8538 77.562 88.4012 76.3047 86.0208 76.3047H80.5887V89ZM82.7127 81.6147V78.0625H85.7034C87.034 78.0625 87.742 78.6606 87.742 79.7959V79.8203C87.742 81.041 86.9852 81.6147 85.386 81.6147H82.7127ZM82.7127 87.2422V83.3726H85.4959C87.3514 83.3726 88.2425 83.9829 88.2425 85.2891V85.3135C88.2425 86.583 87.4124 87.2422 85.8743 87.2422H82.7127Z" fill="white"/>
</g>
<g filter="url(#filter14_d_3_1869)">
<path d="M105.273 67C105.273 64.2386 107.511 62 110.273 62H128.364C131.125 62 133.364 64.2386 133.364 67V99C133.364 101.761 131.125 104 128.364 104H110.273C107.511 104 105.273 101.761 105.273 99V67Z" fill="#6B6B6B"/>
<path d="M118.134 89.2441C119.831 89.2441 121.357 88.3286 122.101 86.937H122.15V89H124.274V80.2231C124.274 77.6841 122.394 76.0605 119.391 76.0605C116.401 76.0605 114.582 77.7451 114.399 79.8325L114.387 79.9668H116.437L116.462 79.8569C116.706 78.7217 117.731 77.9404 119.367 77.9404C121.137 77.9404 122.15 78.8804 122.15 80.4307V81.4927L118.512 81.7002C115.595 81.8711 113.91 83.2261 113.91 85.3867V85.4111C113.91 87.7183 115.607 89.2441 118.134 89.2441ZM116.083 85.4111V85.3867C116.083 84.2026 117.06 83.4458 118.757 83.3481L122.15 83.1406V84.1782C122.15 86.0215 120.612 87.4009 118.61 87.4009C117.084 87.4009 116.083 86.6318 116.083 85.4111Z" fill="white"/>
</g>
<g filter="url(#filter15_d_3_1869)">
<path d="M139.364 67C139.364 64.2386 141.602 62 144.364 62H162.455C165.216 62 167.455 64.2386 167.455 67V99C167.455 101.761 165.216 104 162.455 104H144.364C141.602 104 139.364 101.761 139.364 99V67Z" fill="#6B6B6B"/>
<path d="M148.233 89H150.357V78.0625H156.449V89H158.585V76.3047H148.233V89Z" fill="white"/>
</g>
<g filter="url(#filter16_d_3_1869)">
<path d="M173.455 67C173.455 64.2386 175.693 62 178.455 62H196.545C199.307 62 201.545 64.2386 201.545 67V99C201.545 101.761 199.307 104 196.545 104H178.455C175.693 104 173.455 101.761 173.455 99V67Z" fill="#6B6B6B"/>
<path d="M182.007 93.2725H184.131V86.876H184.18C184.973 88.3408 186.45 89.2441 188.245 89.2441C191.431 89.2441 193.604 86.6685 193.604 82.6646V82.6523C193.604 78.6484 191.455 76.0605 188.208 76.0605C186.389 76.0605 184.973 76.9761 184.18 78.4531H184.131V76.3047H182.007V93.2725ZM187.793 87.3643C185.657 87.3643 184.119 85.4966 184.119 82.6646V82.6523C184.119 79.8081 185.645 77.9404 187.793 77.9404C190.039 77.9404 191.431 79.7349 191.431 82.6523V82.6646C191.431 85.5576 190.039 87.3643 187.793 87.3643Z" fill="white"/>
</g>
<g filter="url(#filter17_d_3_1869)">
<path d="M207.545 67C207.545 64.2386 209.784 62 212.545 62H230.636C233.398 62 235.636 64.2386 235.636 67V99C235.636 101.761 233.398 104 230.636 104H212.545C209.784 104 207.545 101.761 207.545 99V67Z" fill="#6B6B6B"/>
<path d="M221.591 89.2441C225.094 89.2441 227.462 86.7051 227.462 82.6523V82.6279C227.462 78.5752 225.082 76.0605 221.579 76.0605C218.075 76.0605 215.707 78.5874 215.707 82.6279V82.6523C215.707 86.6929 218.063 89.2441 221.591 89.2441ZM221.603 87.3643C219.357 87.3643 217.88 85.6431 217.88 82.6523V82.6279C217.88 79.6616 219.369 77.9404 221.579 77.9404C223.825 77.9404 225.29 79.6494 225.29 82.6279V82.6523C225.29 85.6309 223.837 87.3643 221.603 87.3643Z" fill="white"/>
</g>
<g filter="url(#filter18_d_3_1869)">
<path d="M241.636 67C241.636 64.2386 243.875 62 246.636 62H264.727C267.489 62 269.727 64.2386 269.727 67V99C269.727 101.761 267.489 104 264.727 104H246.636C243.875 104 241.636 101.761 241.636 99V67Z" fill="#6B6B6B"/>
<path d="M253.729 83.4092L254.132 78.0625H259.014V89H261.138V76.3047H252.215L251.715 83.3604C251.544 85.6919 251.08 87.1689 249.725 87.1689C249.395 87.1689 249.163 87.1201 249.054 87.0835V89C249.224 89.061 249.542 89.1221 249.945 89.1221C252.642 89.1221 253.46 86.9126 253.729 83.4092Z" fill="white"/>
</g>
<g filter="url(#filter19_d_3_1869)">
<path d="M275.727 67C275.727 64.2386 277.966 62 280.727 62H298.818C301.58 62 303.818 64.2386 303.818 67V99C303.818 101.761 301.58 104 298.818 104H280.727C277.966 104 275.727 101.761 275.727 99V67Z" fill="#6B6B6B"/>
<path d="M284.756 92.479V89H294.607V92.479H296.584V87.2422H294.57V76.3047H285.83L285.342 83.3481C285.22 85.0571 284.768 86.6318 283.84 87.2422H282.778V92.479H284.756ZM292.446 87.2422H286.233V87.1934C286.867 86.3755 287.197 84.9961 287.307 83.397L287.698 78.0625H292.446V87.2422Z" fill="white"/>
</g>
<g filter="url(#filter20_d_3_1869)">
<path d="M309.818 67C309.818 64.2386 312.057 62 314.818 62H332.909C335.67 62 337.909 64.2386 337.909 67V99C337.909 101.761 335.67 104 332.909 104H314.818C312.057 104 309.818 101.761 309.818 99V67Z" fill="#6B6B6B"/>
<path d="M317.516 89L322.472 83.0918H322.838V89H324.889V83.0918H325.255L330.211 89H332.933L327.196 82.3105L332.738 76.3047H330.15L325.255 81.7246H324.889V76.3047H322.838V81.7246H322.472L317.577 76.3047H314.989L320.531 82.3105L314.794 89H317.516Z" fill="white"/>
</g>
<g filter="url(#filter21_d_3_1869)">
<path d="M343.909 67C343.909 64.2386 346.148 62 348.909 62H367C369.762 62 372 64.2386 372 67V99C372 101.761 369.762 104 367 104H348.909C346.148 104 343.909 101.761 343.909 99V67Z" fill="#6B6B6B"/>
<path d="M357.564 89.2441C361.153 89.2441 363.436 86.6807 363.436 82.6401V82.6279C363.436 78.624 361.104 76.0605 357.588 76.0605C354.415 76.0605 352.547 78.1602 352.278 80.333L352.266 80.4307H354.341L354.366 80.333C354.683 79.0635 355.709 77.9404 357.576 77.9404C359.481 77.9404 360.848 79.3076 361.177 81.5293H355.513V83.2871H361.238C361.043 85.8628 359.59 87.3643 357.552 87.3643C355.818 87.3643 354.708 86.3877 354.354 84.9717L354.329 84.874H352.242L352.254 84.9595C352.596 87.3765 354.683 89.2441 357.564 89.2441Z" fill="white"/>
</g>
<g filter="url(#filter22_d_3_1869)">
<path d="M3 121C3 118.239 5.23858 116 8 116H26.09C28.8514 116 31.09 118.239 31.09 121V153C31.09 155.761 28.8514 158 26.09 158H8C5.23857 158 3 155.761 3 153V121Z" fill="#474747"/>
<path d="M10.3193 136.726L16.6207 130.424C16.8551 130.19 17.235 130.19 17.4693 130.424L23.7707 136.726C24.1487 137.104 23.881 137.75 23.3465 137.75H20.295V141.75C20.295 142.302 19.8473 142.75 19.295 142.75H14.795C14.2427 142.75 13.795 142.302 13.795 141.75V137.75H10.7435C10.209 137.75 9.94129 137.104 10.3193 136.726Z" stroke="white" stroke-width="1.5"/>
</g>
<g filter="url(#filter23_d_3_1869)">
<path d="M37.0901 121C37.0901 118.239 39.3287 116 42.0901 116H60.1812C62.9426 116 65.1812 118.239 65.1812 121V153C65.1812 155.761 62.9426 158 60.1812 158H42.0901C39.3287 158 37.0901 155.761 37.0901 153V121Z" fill="#6B6B6B"/>
<path d="M53.6503 143H55.7743V130.305H51.0502C48.1327 130.305 46.2528 131.904 46.2528 134.504V134.528C46.2528 136.262 47.3393 137.58 49.1337 138.093L45.5937 143H48.0473L51.2699 138.483H53.6503V143ZM51.0624 136.726C49.4267 136.726 48.4257 135.798 48.4257 134.492V134.467C48.4257 132.954 49.4145 132.062 51.0624 132.062H53.6503V136.726H51.0624Z" fill="white"/>
</g>
<g filter="url(#filter24_d_3_1869)">
<path d="M71.1812 121C71.1812 118.239 73.4197 116 76.1812 116H94.2723C97.0337 116 99.2723 118.239 99.2723 121V153C99.2723 155.761 97.0337 158 94.2723 158H76.1812C73.4197 158 71.1812 155.761 71.1812 153V121Z" fill="#6B6B6B"/>
<path d="M90.0607 143V130.305H87.9367V135.651C87.3507 136.237 86.2155 136.628 85.0924 136.628C83.1515 136.628 82.1872 135.737 82.1872 133.93V130.305H80.0631V134.077C80.0631 136.774 81.6378 138.508 84.6896 138.508C85.8981 138.508 87.0944 138.154 87.8878 137.446H87.9367V143H90.0607Z" fill="white"/>
</g>
<g filter="url(#filter25_d_3_1869)">
<path d="M105.272 121C105.272 118.239 107.511 116 110.272 116H128.363C131.125 116 133.363 118.239 133.363 121V153C133.363 155.761 131.125 158 128.363 158H110.272C107.511 158 105.272 155.761 105.272 153V121Z" fill="#6B6B6B"/>
<path d="M119.696 143.244C122.565 143.244 124.652 141.376 124.994 138.959L125.006 138.874H122.919L122.894 138.972C122.54 140.388 121.43 141.364 119.696 141.364C117.499 141.364 115.985 139.619 115.985 136.665V136.652C115.985 133.771 117.462 131.94 119.672 131.94C121.539 131.94 122.565 133.063 122.882 134.333L122.907 134.431H124.982L124.97 134.333C124.701 132.16 122.833 130.061 119.672 130.061C116.144 130.061 113.812 132.624 113.812 136.628V136.64C113.812 140.681 116.095 143.244 119.696 143.244Z" fill="white"/>
</g>
<g filter="url(#filter26_d_3_1869)">
<path d="M139.364 121C139.364 118.239 141.602 116 144.364 116H162.455C165.216 116 167.455 118.239 167.455 121V153C167.455 155.761 165.216 158 162.455 158H144.364C141.602 158 139.364 155.761 139.364 153V121Z" fill="#6B6B6B"/>
<path d="M148.429 143V133.991H148.514L152.591 142.634H154.215L158.304 133.991H158.39V143H160.514V130.305H158.023L153.495 140.192H153.397L148.905 130.305H146.305V143H148.429Z" fill="white"/>
</g>
<g filter="url(#filter27_d_3_1869)">
<path d="M173.455 121C173.455 118.239 175.693 116 178.455 116H196.546C199.307 116 201.546 118.239 201.546 121V153C201.546 155.761 199.307 158 196.546 158H178.455C175.693 158 173.455 155.761 173.455 153V121Z" fill="#6B6B6B"/>
<path d="M182.178 143H184.277L190.601 133.564H190.698V143H192.822V130.305H190.723L184.4 139.741H184.302V130.305H182.178V143Z" fill="white"/>
</g>
<g filter="url(#filter28_d_3_1869)">
<path d="M207.546 121C207.546 118.239 209.784 116 212.546 116H230.637C233.398 116 235.637 118.239 235.637 121V153C235.637 155.761 233.398 158 230.637 158H212.546C209.784 158 207.546 155.761 207.546 153V121Z" fill="#6B6B6B"/>
<path d="M226.743 130.305H216.44V132.062H220.529V143H222.653V132.062H226.743V130.305Z" fill="white"/>
</g>
<g filter="url(#filter29_d_3_1869)">
<path d="M241.637 121C241.637 118.239 243.875 116 246.637 116H264.728C267.489 116 269.728 118.239 269.728 121V153C269.728 155.761 267.489 158 264.728 158H246.637C243.875 158 241.637 155.761 241.637 153V121Z" fill="#6B6B6B"/>
<path d="M251.373 143H255.878C258.783 143 260.651 141.328 260.651 138.691V138.667C260.651 136.03 258.783 134.357 255.878 134.357H253.497V130.305H251.373V143ZM255.841 136.115C257.452 136.115 258.478 137.116 258.478 138.667V138.691C258.478 140.229 257.465 141.242 255.841 141.242H253.497V136.115H255.841Z" fill="white"/>
</g>
<g filter="url(#filter30_d_3_1869)">
<path d="M275.728 121C275.728 118.239 277.966 116 280.728 116H298.819C301.58 116 303.819 118.239 303.819 121V153C303.819 155.761 301.58 158 298.819 158H280.728C277.966 158 275.728 155.761 275.728 153V121Z" fill="#6B6B6B"/>
<path d="M289.834 143.244C293.509 143.244 295.767 140.778 295.767 136.787V136.762C295.767 132.99 293.582 130.573 290.152 130.573C288.174 130.573 286.575 131.354 285.733 132.856H285.684L285.708 132.685C286.233 129.011 287.295 127.509 290.774 127.375L291.714 127.338C293.179 127.277 294.522 126.96 294.925 126.594V124.738C294.204 125.117 292.837 125.373 291.617 125.422L290.677 125.458C285.745 125.654 283.89 128.559 283.89 135.554V135.578C283.89 140.62 285.94 143.244 289.834 143.244ZM289.834 141.364C287.442 141.364 286.062 139.704 286.062 136.787V136.762C286.062 134.003 287.442 132.453 289.834 132.453C292.215 132.453 293.594 134.003 293.594 136.762V136.787C293.594 139.704 292.215 141.364 289.834 141.364Z" fill="white"/>
</g>
<g filter="url(#filter31_d_3_1869)">
<path d="M309.819 121C309.819 118.239 312.057 116 314.819 116H332.91C335.671 116 337.91 118.239 337.91 121V153C337.91 155.761 335.671 158 332.91 158H314.819C312.057 158 309.819 155.761 309.819 153V121Z" fill="#6B6B6B"/>
<path d="M316.284 143H318.408V137.299H320.544C320.788 140.998 322.924 143.244 326.294 143.244C329.858 143.244 332.055 140.742 332.055 136.665V136.64C332.055 132.551 329.858 130.061 326.294 130.061C323.071 130.061 320.971 132.111 320.593 135.542H318.408V130.305H316.284V143ZM326.294 141.364C323.999 141.364 322.705 139.643 322.705 136.665V136.64C322.705 133.649 323.999 131.94 326.294 131.94C328.589 131.94 329.882 133.649 329.882 136.64V136.665C329.882 139.643 328.589 141.364 326.294 141.364Z" fill="white"/>
</g>
<g filter="url(#filter32_d_3_1869)">
<path d="M343.91 121C343.91 118.239 346.148 116 348.91 116H367C369.761 116 372 118.239 372 121V153C372 155.761 369.761 158 367 158H348.91C346.148 158 343.91 155.761 343.91 153V121Z" fill="#474747"/>
<path d="M355.453 131.75H363.205C364.033 131.75 364.705 132.422 364.705 133.25V140.75C364.705 141.578 364.033 142.25 363.205 142.25H355.453C355.294 142.25 355.142 142.187 355.029 142.074L350.379 137.424C350.145 137.19 350.145 136.81 350.379 136.576L355.029 131.926C355.142 131.813 355.294 131.75 355.453 131.75Z" stroke="white" stroke-width="1.5"/>
<path d="M356.705 134.75L358.955 137M361.205 139.25L358.955 137M358.955 137L361.205 134.75M358.955 137L356.705 139.25" stroke="white" stroke-width="1.4" stroke-linecap="round"/>
</g>
<g filter="url(#filter33_d_3_1869)">
<path d="M3 175C3 172.239 5.23858 170 8 170H40C42.7614 170 45 172.239 45 175V207C45 209.761 42.7614 212 40 212H8C5.23858 212 3 209.761 3 207V175Z" fill="#474747"/>
<path d="M15.0146 197H16.4164V185.374H14.9985L11.9047 187.598V189.056L14.9824 186.913H15.0146V197ZM19.0452 197H26.7151V195.711H21.0352V195.679L23.7986 192.843C25.9336 190.659 26.5217 189.701 26.5217 188.428V188.412C26.5217 186.591 24.9829 185.181 22.8801 185.181C20.7129 185.181 18.9727 186.671 18.9727 188.686V188.734H20.3745V188.694C20.3745 187.445 21.4541 186.446 22.9043 186.446C24.1692 186.446 25.0635 187.3 25.0715 188.484V188.5C25.0715 189.467 24.709 190.095 23.1379 191.731L19.0452 196.001V197ZM31.9864 197.193C34.3148 197.193 36.0228 195.759 36.0228 193.818V193.802C36.0228 192.15 34.8707 191.094 33.1788 190.949V190.917C34.629 190.611 35.6441 189.628 35.6441 188.194V188.178C35.6441 186.414 34.1859 185.181 31.9703 185.181C29.795 185.181 28.2965 186.446 28.1112 188.339L28.1031 188.42H29.4969L29.505 188.339C29.6258 187.163 30.6007 186.438 31.9703 186.438C33.3883 186.438 34.1859 187.139 34.1859 188.355V188.371C34.1859 189.531 33.2191 190.385 31.8333 190.385H30.4395V191.61H31.8978C33.5252 191.61 34.5484 192.408 34.5484 193.834V193.85C34.5484 195.083 33.5091 195.937 31.9864 195.937C30.4395 195.937 29.3922 195.147 29.2713 194.003L29.2633 193.922H27.8695L27.8775 194.019C28.0306 195.856 29.5855 197.193 31.9864 197.193Z" fill="white"/>
</g>
<g filter="url(#filter34_d_3_1869)">
<path d="M51 175C51 172.239 53.2386 170 56 170H88C90.7614 170 93 172.239 93 175V207C93 209.761 90.7614 212 88 212H56C53.2386 212 51 209.761 51 207V175Z" fill="#474747"/>
<path fill-rule="evenodd" clip-rule="evenodd" d="M72 200.55C77.2743 200.55 81.55 196.274 81.55 191C81.55 185.726 77.2743 181.45 72 181.45C66.7256 181.45 62.45 185.726 62.45 191C62.45 196.274 66.7256 200.55 72 200.55ZM68.75 189C69.4404 189 70 188.44 70 187.75C70 187.06 69.4404 186.5 68.75 186.5C68.0596 186.5 67.5 187.06 67.5 187.75C67.5 188.44 68.0596 189 68.75 189ZM76.5 187.75C76.5 188.44 75.9404 189 75.25 189C74.5596 189 74 188.44 74 187.75C74 187.06 74.5596 186.5 75.25 186.5C75.9404 186.5 76.5 187.06 76.5 187.75ZM72 197.75C75.2467 197.75 77.9581 195.458 78.604 192.403C78.7188 191.86 78.0226 191.455 77.5049 191.656C76.4656 192.059 74.7103 192.5 72 192.5C69.2898 192.5 67.5345 192.059 66.4951 191.656C65.9775 191.455 65.2812 191.86 65.3961 192.403C66.042 195.458 68.7533 197.75 72 197.75ZM72 194.85C74.7665 194.85 77.0332 194.035 77.2354 193.001C77.2491 192.93 77.1769 192.88 77.1093 192.904C76.63 193.075 74.9269 193.6 72 193.6C69.0731 193.6 67.3701 193.075 66.8908 192.904C66.8232 192.88 66.7509 192.93 66.7647 193.001C66.9669 194.035 69.2336 194.85 72 194.85Z" fill="white"/>
</g>
<g filter="url(#filter35_d_3_1869)">
<path d="M99 175C99 172.239 101.239 170 104 170H271C273.761 170 276 172.239 276 175V207C276 209.761 273.761 212 271 212H104C101.239 212 99 209.761 99 207V175Z" fill="#6B6B6B"/>
<path d="M170.495 195.5V183.874H161.375V195.5H162.825V185.179H169.045V195.5H170.495ZM172.374 198.32H173.776V194.098H173.808C174.332 195.065 175.307 195.661 176.491 195.661C178.594 195.661 180.028 193.961 180.028 191.319V191.311C180.028 188.668 178.61 186.96 176.467 186.96C175.267 186.96 174.332 187.564 173.808 188.539H173.776V187.121H172.374V198.32ZM176.193 194.42C174.783 194.42 173.768 193.188 173.768 191.319V191.311C173.768 189.433 174.775 188.201 176.193 188.201C177.676 188.201 178.594 189.385 178.594 191.311V191.319C178.594 193.228 177.676 194.42 176.193 194.42ZM184.76 195.661C187.072 195.661 188.635 193.985 188.635 191.311V191.294C188.635 188.62 187.064 186.96 184.752 186.96C182.439 186.96 180.876 188.628 180.876 191.294V191.311C180.876 193.977 182.431 195.661 184.76 195.661ZM184.768 194.42C183.285 194.42 182.31 193.284 182.31 191.311V191.294C182.31 189.337 183.293 188.201 184.752 188.201C186.234 188.201 187.201 189.329 187.201 191.294V191.311C187.201 193.276 186.242 194.42 184.768 194.42ZM193.479 195.661C195.904 195.661 197.395 194.034 197.395 191.399V191.383C197.395 188.894 195.953 187.298 193.689 187.298C192.383 187.298 191.328 187.814 190.772 188.805H190.74L190.756 188.692C191.102 186.267 191.803 185.276 194.1 185.188L194.72 185.163C195.687 185.123 196.573 184.914 196.839 184.672V183.447C196.363 183.697 195.461 183.866 194.655 183.898L194.035 183.923C190.78 184.052 189.556 185.969 189.556 190.585V190.602C189.556 193.929 190.909 195.661 193.479 195.661ZM193.479 194.42C191.9 194.42 190.99 193.325 190.99 191.399V191.383C190.99 189.562 191.9 188.539 193.479 188.539C195.05 188.539 195.961 189.562 195.961 191.383V191.399C195.961 193.325 195.05 194.42 193.479 194.42ZM202.094 195.661C203.923 195.661 205.292 194.565 205.566 193.18L205.583 193.099H204.205L204.181 193.172C203.939 193.889 203.19 194.42 202.126 194.42C200.636 194.42 199.685 193.413 199.653 191.689H205.687V191.174C205.687 188.66 204.293 186.96 202.005 186.96C199.717 186.96 198.235 188.74 198.235 191.335V191.343C198.235 193.977 199.685 195.661 202.094 195.661ZM201.997 188.201C203.222 188.201 204.124 188.966 204.261 190.594H199.677C199.83 189.031 200.781 188.201 201.997 188.201ZM208.944 191.81L209.21 188.281H212.433V195.5H213.835V187.121H207.945L207.615 191.778C207.502 193.317 207.196 194.292 206.302 194.292C206.084 194.292 205.931 194.259 205.859 194.235V195.5C205.971 195.54 206.181 195.581 206.447 195.581C208.227 195.581 208.767 194.122 208.944 191.81Z" fill="white"/>
</g>
<g filter="url(#filter36_d_3_1869)">
<path d="M282 175C282 172.239 284.239 170 287 170H367C369.761 170 372 172.239 372 175V207C372 209.761 369.761 212 367 212H287C284.239 212 282 209.761 282 207V175Z" fill="#474747"/>
<path d="M306.072 195.5H307.523V190.207H313.903V195.5H315.354V183.874H313.903V188.902H307.523V183.874H306.072V195.5ZM319.682 195.661C320.802 195.661 321.809 195.057 322.301 194.138H322.333V195.5H323.735V189.707C323.735 188.031 322.494 186.96 320.512 186.96C318.538 186.96 317.338 188.072 317.217 189.449L317.209 189.538H318.562L318.579 189.466C318.74 188.716 319.416 188.201 320.496 188.201C321.664 188.201 322.333 188.821 322.333 189.844V190.545L319.932 190.682C318.007 190.795 316.895 191.689 316.895 193.115V193.131C316.895 194.654 318.015 195.661 319.682 195.661ZM318.329 193.131V193.115C318.329 192.334 318.973 191.834 320.093 191.77L322.333 191.633V192.318C322.333 193.534 321.318 194.445 319.997 194.445C318.989 194.445 318.329 193.937 318.329 193.131ZM328.958 186.17C330.513 186.17 331.423 185.163 331.423 183.89V183.866H330.271V183.906C330.271 184.624 329.804 185.236 328.966 185.236C328.096 185.236 327.661 184.624 327.661 183.906V183.866H326.509V183.89C326.509 185.163 327.419 186.17 328.958 186.17ZM325.348 195.5H326.734L330.907 189.272H330.972V195.5H332.374V187.121H330.988L326.815 193.349H326.75V187.121H325.348V195.5ZM340.151 187.121H333.351V188.281H336.05V195.5H337.452V188.281H340.151V187.121ZM341.128 195.5H342.514L346.687 189.272H346.751V195.5H348.153V187.121H346.767L342.594 193.349H342.53V187.121H341.128V195.5Z" fill="white"/>
</g>
<path d="M55.6671 250C55.6671 256.996 49.996 262.667 43.0004 262.667M55.6671 250C55.6671 243.005 49.996 237.334 43.0004 237.334M55.6671 250H30.3337M43.0004 262.667C36.0048 262.667 30.3337 256.996 30.3337 250M43.0004 262.667V237.334M30.3337 250C30.3337 243.005 36.0048 237.334 43.0004 237.334" stroke="white" stroke-width="1.5"/>
<path d="M33.0002 241.835C35.318 243.558 38.9355 244.667 43.0002 244.667C47.065 244.667 50.6825 243.558 53.0002 241.835" stroke="white" stroke-width="1.5"/>
<path d="M33.0002 258.167C35.318 256.443 38.9355 255.335 43.0002 255.335C47.065 255.335 50.6825 256.443 53.0002 258.167" stroke="white" stroke-width="1.5"/>
<ellipse cx="43.0025" cy="250" rx="6.1675" ry="12" stroke="white" stroke-width="1.5"/>
<path d="M328.25 239.5C328.25 237.429 329.929 235.75 332 235.75V235.75C334.071 235.75 335.75 237.429 335.75 239.5V249C335.75 251.071 334.071 252.75 332 252.75V252.75C329.929 252.75 328.25 251.071 328.25 249V239.5Z" stroke="white" stroke-width="1.75"/>
<path d="M326.25 262H337.75" stroke="white" stroke-width="1.75" stroke-linecap="round"/>
<path d="M332 256.5V262" stroke="white" stroke-width="1.75"/>
<path d="M323.5 246V248.75C323.5 253.444 327.306 257.25 332 257.25C336.694 257.25 340.5 253.444 340.5 248.75V246" stroke="white" stroke-width="1.75" stroke-linecap="round"/>
<path d="M114 280.5C114 279.119 115.119 278 116.5 278H259.5C260.881 278 262 279.119 262 280.5C262 281.881 260.881 283 259.5 283H116.5C115.119 283 114 281.881 114 280.5Z" fill="white"/>
<defs>
<filter id="filter0_d_3_1869" x="3" y="8" width="28.0908" height="43" filterUnits="userSpaceOnUse" color-interpolation-filters="sRGB">
<feFlood flood-opacity="0" result="BackgroundImageFix"/>
<feColorMatrix in="SourceAlpha" type="matrix" values="0 0 0 0 0 0 0 0 0 0 0 0 0 0 0 0 0 0 127 0" result="hardAlpha"/>
<feOffset dy="1"/>
<feColorMatrix type="matrix" values="0 0 0 0 0.101961 0 0 0 0 0.101961 0 0 0 0 0.101961 0 0 0 1 0"/>
<feBlend mode="normal" in2="BackgroundImageFix" result="effect1_dropShadow_3_1869"/>
<feBlend mode="normal" in="SourceGraphic" in2="effect1_dropShadow_3_1869" result="shape"/>
</filter>
<filter id="filter1_d_3_1869" x="37.0908" y="8" width="28.0908" height="43" filterUnits="userSpaceOnUse" color-interpolation-filters="sRGB">
<feFlood flood-opacity="0" result="BackgroundImageFix"/>
<feColorMatrix in="SourceAlpha" type="matrix" values="0 0 0 0 0 0 0 0 0 0 0 0 0 0 0 0 0 0 127 0" result="hardAlpha"/>
<feOffset dy="1"/>
<feColorMatrix type="matrix" values="0 0 0 0 0.101961 0 0 0 0 0.101961 0 0 0 0 0.101961 0 0 0 1 0"/>
<feBlend mode="normal" in2="BackgroundImageFix" result="effect1_dropShadow_3_1869"/>
<feBlend mode="normal" in="SourceGraphic" in2="effect1_dropShadow_3_1869" result="shape"/>
</filter>
<filter id="filter2_d_3_1869" x="71.1819" y="8" width="28.0908" height="43" filterUnits="userSpaceOnUse" color-interpolation-filters="sRGB">
<feFlood flood-opacity="0" result="BackgroundImageFix"/>
<feColorMatrix in="SourceAlpha" type="matrix" values="0 0 0 0 0 0 0 0 0 0 0 0 0 0 0 0 0 0 127 0" result="hardAlpha"/>
<feOffset dy="1"/>
<feColorMatrix type="matrix" values="0 0 0 0 0.101961 0 0 0 0 0.101961 0 0 0 0 0.101961 0 0 0 1 0"/>
<feBlend mode="normal" in2="BackgroundImageFix" result="effect1_dropShadow_3_1869"/>
<feBlend mode="normal" in="SourceGraphic" in2="effect1_dropShadow_3_1869" result="shape"/>
</filter>
<filter id="filter3_d_3_1869" x="105.273" y="8" width="28.0908" height="43" filterUnits="userSpaceOnUse" color-interpolation-filters="sRGB">
<feFlood flood-opacity="0" result="BackgroundImageFix"/>
<feColorMatrix in="SourceAlpha" type="matrix" values="0 0 0 0 0 0 0 0 0 0 0 0 0 0 0 0 0 0 127 0" result="hardAlpha"/>
<feOffset dy="1"/>
<feColorMatrix type="matrix" values="0 0 0 0 0.101961 0 0 0 0 0.101961 0 0 0 0 0.101961 0 0 0 1 0"/>
<feBlend mode="normal" in2="BackgroundImageFix" result="effect1_dropShadow_3_1869"/>
<feBlend mode="normal" in="SourceGraphic" in2="effect1_dropShadow_3_1869" result="shape"/>
</filter>
<filter id="filter4_d_3_1869" x="139.364" y="8" width="28.0908" height="43" filterUnits="userSpaceOnUse" color-interpolation-filters="sRGB">
<feFlood flood-opacity="0" result="BackgroundImageFix"/>
<feColorMatrix in="SourceAlpha" type="matrix" values="0 0 0 0 0 0 0 0 0 0 0 0 0 0 0 0 0 0 127 0" result="hardAlpha"/>
<feOffset dy="1"/>
<feColorMatrix type="matrix" values="0 0 0 0 0.101961 0 0 0 0 0.101961 0 0 0 0 0.101961 0 0 0 1 0"/>
<feBlend mode="normal" in2="BackgroundImageFix" result="effect1_dropShadow_3_1869"/>
<feBlend mode="normal" in="SourceGraphic" in2="effect1_dropShadow_3_1869" result="shape"/>
</filter>
<filter id="filter5_d_3_1869" x="173.455" y="8" width="28.0908" height="43" filterUnits="userSpaceOnUse" color-interpolation-filters="sRGB">
<feFlood flood-opacity="0" result="BackgroundImageFix"/>
<feColorMatrix in="SourceAlpha" type="matrix" values="0 0 0 0 0 0 0 0 0 0 0 0 0 0 0 0 0 0 127 0" result="hardAlpha"/>
<feOffset dy="1"/>
<feColorMatrix type="matrix" values="0 0 0 0 0.101961 0 0 0 0 0.101961 0 0 0 0 0.101961 0 0 0 1 0"/>
<feBlend mode="normal" in2="BackgroundImageFix" result="effect1_dropShadow_3_1869"/>
<feBlend mode="normal" in="SourceGraphic" in2="effect1_dropShadow_3_1869" result="shape"/>
</filter>
<filter id="filter6_d_3_1869" x="207.545" y="8" width="28.0908" height="43" filterUnits="userSpaceOnUse" color-interpolation-filters="sRGB">
<feFlood flood-opacity="0" result="BackgroundImageFix"/>
<feColorMatrix in="SourceAlpha" type="matrix" values="0 0 0 0 0 0 0 0 0 0 0 0 0 0 0 0 0 0 127 0" result="hardAlpha"/>
<feOffset dy="1"/>
<feColorMatrix type="matrix" values="0 0 0 0 0.101961 0 0 0 0 0.101961 0 0 0 0 0.101961 0 0 0 1 0"/>
<feBlend mode="normal" in2="BackgroundImageFix" result="effect1_dropShadow_3_1869"/>
<feBlend mode="normal" in="SourceGraphic" in2="effect1_dropShadow_3_1869" result="shape"/>
</filter>
<filter id="filter7_d_3_1869" x="241.636" y="8" width="28.0908" height="43" filterUnits="userSpaceOnUse" color-interpolation-filters="sRGB">
<feFlood flood-opacity="0" result="BackgroundImageFix"/>
<feColorMatrix in="SourceAlpha" type="matrix" values="0 0 0 0 0 0 0 0 0 0 0 0 0 0 0 0 0 0 127 0" result="hardAlpha"/>
<feOffset dy="1"/>
<feColorMatrix type="matrix" values="0 0 0 0 0.101961 0 0 0 0 0.101961 0 0 0 0 0.101961 0 0 0 1 0"/>
<feBlend mode="normal" in2="BackgroundImageFix" result="effect1_dropShadow_3_1869"/>
<feBlend mode="normal" in="SourceGraphic" in2="effect1_dropShadow_3_1869" result="shape"/>
</filter>
<filter id="filter8_d_3_1869" x="275.727" y="8" width="28.0908" height="43" filterUnits="userSpaceOnUse" color-interpolation-filters="sRGB">
<feFlood flood-opacity="0" result="BackgroundImageFix"/>
<feColorMatrix in="SourceAlpha" type="matrix" values="0 0 0 0 0 0 0 0 0 0 0 0 0 0 0 0 0 0 127 0" result="hardAlpha"/>
<feOffset dy="1"/>
<feColorMatrix type="matrix" values="0 0 0 0 0.101961 0 0 0 0 0.101961 0 0 0 0 0.101961 0 0 0 1 0"/>
<feBlend mode="normal" in2="BackgroundImageFix" result="effect1_dropShadow_3_1869"/>
<feBlend mode="normal" in="SourceGraphic" in2="effect1_dropShadow_3_1869" result="shape"/>
</filter>
<filter id="filter9_d_3_1869" x="309.818" y="8" width="28.0908" height="43" filterUnits="userSpaceOnUse" color-interpolation-filters="sRGB">
<feFlood flood-opacity="0" result="BackgroundImageFix"/>
<feColorMatrix in="SourceAlpha" type="matrix" values="0 0 0 0 0 0 0 0 0 0 0 0 0 0 0 0 0 0 127 0" result="hardAlpha"/>
<feOffset dy="1"/>
<feColorMatrix type="matrix" values="0 0 0 0 0.101961 0 0 0 0 0.101961 0 0 0 0 0.101961 0 0 0 1 0"/>
<feBlend mode="normal" in2="BackgroundImageFix" result="effect1_dropShadow_3_1869"/>
<feBlend mode="normal" in="SourceGraphic" in2="effect1_dropShadow_3_1869" result="shape"/>
</filter>
<filter id="filter10_d_3_1869" x="343.909" y="8" width="28.0908" height="43" filterUnits="userSpaceOnUse" color-interpolation-filters="sRGB">
<feFlood flood-opacity="0" result="BackgroundImageFix"/>
<feColorMatrix in="SourceAlpha" type="matrix" values="0 0 0 0 0 0 0 0 0 0 0 0 0 0 0 0 0 0 127 0" result="hardAlpha"/>
<feOffset dy="1"/>
<feColorMatrix type="matrix" values="0 0 0 0 0.101961 0 0 0 0 0.101961 0 0 0 0 0.101961 0 0 0 1 0"/>
<feBlend mode="normal" in2="BackgroundImageFix" result="effect1_dropShadow_3_1869"/>
<feBlend mode="normal" in="SourceGraphic" in2="effect1_dropShadow_3_1869" result="shape"/>
</filter>
<filter id="filter11_d_3_1869" x="3" y="62" width="28.0908" height="43" filterUnits="userSpaceOnUse" color-interpolation-filters="sRGB">
<feFlood flood-opacity="0" result="BackgroundImageFix"/>
<feColorMatrix in="SourceAlpha" type="matrix" values="0 0 0 0 0 0 0 0 0 0 0 0 0 0 0 0 0 0 127 0" result="hardAlpha"/>
<feOffset dy="1"/>
<feColorMatrix type="matrix" values="0 0 0 0 0.101961 0 0 0 0 0.101961 0 0 0 0 0.101961 0 0 0 1 0"/>
<feBlend mode="normal" in2="BackgroundImageFix" result="effect1_dropShadow_3_1869"/>
<feBlend mode="normal" in="SourceGraphic" in2="effect1_dropShadow_3_1869" result="shape"/>
</filter>
<filter id="filter12_d_3_1869" x="37.0908" y="62" width="28.0908" height="43" filterUnits="userSpaceOnUse" color-interpolation-filters="sRGB">
<feFlood flood-opacity="0" result="BackgroundImageFix"/>
<feColorMatrix in="SourceAlpha" type="matrix" values="0 0 0 0 0 0 0 0 0 0 0 0 0 0 0 0 0 0 127 0" result="hardAlpha"/>
<feOffset dy="1"/>
<feColorMatrix type="matrix" values="0 0 0 0 0.101961 0 0 0 0 0.101961 0 0 0 0 0.101961 0 0 0 1 0"/>
<feBlend mode="normal" in2="BackgroundImageFix" result="effect1_dropShadow_3_1869"/>
<feBlend mode="normal" in="SourceGraphic" in2="effect1_dropShadow_3_1869" result="shape"/>
</filter>
<filter id="filter13_d_3_1869" x="71.1819" y="62" width="28.0908" height="43" filterUnits="userSpaceOnUse" color-interpolation-filters="sRGB">
<feFlood flood-opacity="0" result="BackgroundImageFix"/>
<feColorMatrix in="SourceAlpha" type="matrix" values="0 0 0 0 0 0 0 0 0 0 0 0 0 0 0 0 0 0 127 0" result="hardAlpha"/>
<feOffset dy="1"/>
<feColorMatrix type="matrix" values="0 0 0 0 0.101961 0 0 0 0 0.101961 0 0 0 0 0.101961 0 0 0 1 0"/>
<feBlend mode="normal" in2="BackgroundImageFix" result="effect1_dropShadow_3_1869"/>
<feBlend mode="normal" in="SourceGraphic" in2="effect1_dropShadow_3_1869" result="shape"/>
</filter>
<filter id="filter14_d_3_1869" x="105.273" y="62" width="28.0908" height="43" filterUnits="userSpaceOnUse" color-interpolation-filters="sRGB">
<feFlood flood-opacity="0" result="BackgroundImageFix"/>
<feColorMatrix in="SourceAlpha" type="matrix" values="0 0 0 0 0 0 0 0 0 0 0 0 0 0 0 0 0 0 127 0" result="hardAlpha"/>
<feOffset dy="1"/>
<feColorMatrix type="matrix" values="0 0 0 0 0.101961 0 0 0 0 0.101961 0 0 0 0 0.101961 0 0 0 1 0"/>
<feBlend mode="normal" in2="BackgroundImageFix" result="effect1_dropShadow_3_1869"/>
<feBlend mode="normal" in="SourceGraphic" in2="effect1_dropShadow_3_1869" result="shape"/>
</filter>
<filter id="filter15_d_3_1869" x="139.364" y="62" width="28.0908" height="43" filterUnits="userSpaceOnUse" color-interpolation-filters="sRGB">
<feFlood flood-opacity="0" result="BackgroundImageFix"/>
<feColorMatrix in="SourceAlpha" type="matrix" values="0 0 0 0 0 0 0 0 0 0 0 0 0 0 0 0 0 0 127 0" result="hardAlpha"/>
<feOffset dy="1"/>
<feColorMatrix type="matrix" values="0 0 0 0 0.101961 0 0 0 0 0.101961 0 0 0 0 0.101961 0 0 0 1 0"/>
<feBlend mode="normal" in2="BackgroundImageFix" result="effect1_dropShadow_3_1869"/>
<feBlend mode="normal" in="SourceGraphic" in2="effect1_dropShadow_3_1869" result="shape"/>
</filter>
<filter id="filter16_d_3_1869" x="173.455" y="62" width="28.0908" height="43" filterUnits="userSpaceOnUse" color-interpolation-filters="sRGB">
<feFlood flood-opacity="0" result="BackgroundImageFix"/>
<feColorMatrix in="SourceAlpha" type="matrix" values="0 0 0 0 0 0 0 0 0 0 0 0 0 0 0 0 0 0 127 0" result="hardAlpha"/>
<feOffset dy="1"/>
<feColorMatrix type="matrix" values="0 0 0 0 0.101961 0 0 0 0 0.101961 0 0 0 0 0.101961 0 0 0 1 0"/>
<feBlend mode="normal" in2="BackgroundImageFix" result="effect1_dropShadow_3_1869"/>
<feBlend mode="normal" in="SourceGraphic" in2="effect1_dropShadow_3_1869" result="shape"/>
</filter>
<filter id="filter17_d_3_1869" x="207.545" y="62" width="28.0908" height="43" filterUnits="userSpaceOnUse" color-interpolation-filters="sRGB">
<feFlood flood-opacity="0" result="BackgroundImageFix"/>
<feColorMatrix in="SourceAlpha" type="matrix" values="0 0 0 0 0 0 0 0 0 0 0 0 0 0 0 0 0 0 127 0" result="hardAlpha"/>
<feOffset dy="1"/>
<feColorMatrix type="matrix" values="0 0 0 0 0.101961 0 0 0 0 0.101961 0 0 0 0 0.101961 0 0 0 1 0"/>
<feBlend mode="normal" in2="BackgroundImageFix" result="effect1_dropShadow_3_1869"/>
<feBlend mode="normal" in="SourceGraphic" in2="effect1_dropShadow_3_1869" result="shape"/>
</filter>
<filter id="filter18_d_3_1869" x="241.636" y="62" width="28.0908" height="43" filterUnits="userSpaceOnUse" color-interpolation-filters="sRGB">
<feFlood flood-opacity="0" result="BackgroundImageFix"/>
<feColorMatrix in="SourceAlpha" type="matrix" values="0 0 0 0 0 0 0 0 0 0 0 0 0 0 0 0 0 0 127 0" result="hardAlpha"/>
<feOffset dy="1"/>
<feColorMatrix type="matrix" values="0 0 0 0 0.101961 0 0 0 0 0.101961 0 0 0 0 0.101961 0 0 0 1 0"/>
<feBlend mode="normal" in2="BackgroundImageFix" result="effect1_dropShadow_3_1869"/>
<feBlend mode="normal" in="SourceGraphic" in2="effect1_dropShadow_3_1869" result="shape"/>
</filter>
<filter id="filter19_d_3_1869" x="275.727" y="62" width="28.0908" height="43" filterUnits="userSpaceOnUse" color-interpolation-filters="sRGB">
<feFlood flood-opacity="0" result="BackgroundImageFix"/>
<feColorMatrix in="SourceAlpha" type="matrix" values="0 0 0 0 0 0 0 0 0 0 0 0 0 0 0 0 0 0 127 0" result="hardAlpha"/>
<feOffset dy="1"/>
<feColorMatrix type="matrix" values="0 0 0 0 0.101961 0 0 0 0 0.101961 0 0 0 0 0.101961 0 0 0 1 0"/>
<feBlend mode="normal" in2="BackgroundImageFix" result="effect1_dropShadow_3_1869"/>
<feBlend mode="normal" in="SourceGraphic" in2="effect1_dropShadow_3_1869" result="shape"/>
</filter>
<filter id="filter20_d_3_1869" x="309.818" y="62" width="28.0908" height="43" filterUnits="userSpaceOnUse" color-interpolation-filters="sRGB">
<feFlood flood-opacity="0" result="BackgroundImageFix"/>
<feColorMatrix in="SourceAlpha" type="matrix" values="0 0 0 0 0 0 0 0 0 0 0 0 0 0 0 0 0 0 127 0" result="hardAlpha"/>
<feOffset dy="1"/>
<feColorMatrix type="matrix" values="0 0 0 0 0.101961 0 0 0 0 0.101961 0 0 0 0 0.101961 0 0 0 1 0"/>
<feBlend mode="normal" in2="BackgroundImageFix" result="effect1_dropShadow_3_1869"/>
<feBlend mode="normal" in="SourceGraphic" in2="effect1_dropShadow_3_1869" result="shape"/>
</filter>
<filter id="filter21_d_3_1869" x="343.909" y="62" width="28.0908" height="43" filterUnits="userSpaceOnUse" color-interpolation-filters="sRGB">
<feFlood flood-opacity="0" result="BackgroundImageFix"/>
<feColorMatrix in="SourceAlpha" type="matrix" values="0 0 0 0 0 0 0 0 0 0 0 0 0 0 0 0 0 0 127 0" result="hardAlpha"/>
<feOffset dy="1"/>
<feColorMatrix type="matrix" values="0 0 0 0 0.101961 0 0 0 0 0.101961 0 0 0 0 0.101961 0 0 0 1 0"/>
<feBlend mode="normal" in2="BackgroundImageFix" result="effect1_dropShadow_3_1869"/>
<feBlend mode="normal" in="SourceGraphic" in2="effect1_dropShadow_3_1869" result="shape"/>
</filter>
<filter id="filter22_d_3_1869" x="3" y="116" width="28.0901" height="43" filterUnits="userSpaceOnUse" color-interpolation-filters="sRGB">
<feFlood flood-opacity="0" result="BackgroundImageFix"/>
<feColorMatrix in="SourceAlpha" type="matrix" values="0 0 0 0 0 0 0 0 0 0 0 0 0 0 0 0 0 0 127 0" result="hardAlpha"/>
<feOffset dy="1"/>
<feColorMatrix type="matrix" values="0 0 0 0 0.101961 0 0 0 0 0.101961 0 0 0 0 0.101961 0 0 0 1 0"/>
<feBlend mode="normal" in2="BackgroundImageFix" result="effect1_dropShadow_3_1869"/>
<feBlend mode="normal" in="SourceGraphic" in2="effect1_dropShadow_3_1869" result="shape"/>
</filter>
<filter id="filter23_d_3_1869" x="37.0901" y="116" width="28.0911" height="43" filterUnits="userSpaceOnUse" color-interpolation-filters="sRGB">
<feFlood flood-opacity="0" result="BackgroundImageFix"/>
<feColorMatrix in="SourceAlpha" type="matrix" values="0 0 0 0 0 0 0 0 0 0 0 0 0 0 0 0 0 0 127 0" result="hardAlpha"/>
<feOffset dy="1"/>
<feColorMatrix type="matrix" values="0 0 0 0 0.101961 0 0 0 0 0.101961 0 0 0 0 0.101961 0 0 0 1 0"/>
<feBlend mode="normal" in2="BackgroundImageFix" result="effect1_dropShadow_3_1869"/>
<feBlend mode="normal" in="SourceGraphic" in2="effect1_dropShadow_3_1869" result="shape"/>
</filter>
<filter id="filter24_d_3_1869" x="71.1812" y="116" width="28.0911" height="43" filterUnits="userSpaceOnUse" color-interpolation-filters="sRGB">
<feFlood flood-opacity="0" result="BackgroundImageFix"/>
<feColorMatrix in="SourceAlpha" type="matrix" values="0 0 0 0 0 0 0 0 0 0 0 0 0 0 0 0 0 0 127 0" result="hardAlpha"/>
<feOffset dy="1"/>
<feColorMatrix type="matrix" values="0 0 0 0 0.101961 0 0 0 0 0.101961 0 0 0 0 0.101961 0 0 0 1 0"/>
<feBlend mode="normal" in2="BackgroundImageFix" result="effect1_dropShadow_3_1869"/>
<feBlend mode="normal" in="SourceGraphic" in2="effect1_dropShadow_3_1869" result="shape"/>
</filter>
<filter id="filter25_d_3_1869" x="105.272" y="116" width="28.0911" height="43" filterUnits="userSpaceOnUse" color-interpolation-filters="sRGB">
<feFlood flood-opacity="0" result="BackgroundImageFix"/>
<feColorMatrix in="SourceAlpha" type="matrix" values="0 0 0 0 0 0 0 0 0 0 0 0 0 0 0 0 0 0 127 0" result="hardAlpha"/>
<feOffset dy="1"/>
<feColorMatrix type="matrix" values="0 0 0 0 0.101961 0 0 0 0 0.101961 0 0 0 0 0.101961 0 0 0 1 0"/>
<feBlend mode="normal" in2="BackgroundImageFix" result="effect1_dropShadow_3_1869"/>
<feBlend mode="normal" in="SourceGraphic" in2="effect1_dropShadow_3_1869" result="shape"/>
</filter>
<filter id="filter26_d_3_1869" x="139.364" y="116" width="28.0911" height="43" filterUnits="userSpaceOnUse" color-interpolation-filters="sRGB">
<feFlood flood-opacity="0" result="BackgroundImageFix"/>
<feColorMatrix in="SourceAlpha" type="matrix" values="0 0 0 0 0 0 0 0 0 0 0 0 0 0 0 0 0 0 127 0" result="hardAlpha"/>
<feOffset dy="1"/>
<feColorMatrix type="matrix" values="0 0 0 0 0.101961 0 0 0 0 0.101961 0 0 0 0 0.101961 0 0 0 1 0"/>
<feBlend mode="normal" in2="BackgroundImageFix" result="effect1_dropShadow_3_1869"/>
<feBlend mode="normal" in="SourceGraphic" in2="effect1_dropShadow_3_1869" result="shape"/>
</filter>
<filter id="filter27_d_3_1869" x="173.455" y="116" width="28.0911" height="43" filterUnits="userSpaceOnUse" color-interpolation-filters="sRGB">
<feFlood flood-opacity="0" result="BackgroundImageFix"/>
<feColorMatrix in="SourceAlpha" type="matrix" values="0 0 0 0 0 0 0 0 0 0 0 0 0 0 0 0 0 0 127 0" result="hardAlpha"/>
<feOffset dy="1"/>
<feColorMatrix type="matrix" values="0 0 0 0 0.101961 0 0 0 0 0.101961 0 0 0 0 0.101961 0 0 0 1 0"/>
<feBlend mode="normal" in2="BackgroundImageFix" result="effect1_dropShadow_3_1869"/>
<feBlend mode="normal" in="SourceGraphic" in2="effect1_dropShadow_3_1869" result="shape"/>
</filter>
<filter id="filter28_d_3_1869" x="207.546" y="116" width="28.0911" height="43" filterUnits="userSpaceOnUse" color-interpolation-filters="sRGB">
<feFlood flood-opacity="0" result="BackgroundImageFix"/>
<feColorMatrix in="SourceAlpha" type="matrix" values="0 0 0 0 0 0 0 0 0 0 0 0 0 0 0 0 0 0 127 0" result="hardAlpha"/>
<feOffset dy="1"/>
<feColorMatrix type="matrix" values="0 0 0 0 0.101961 0 0 0 0 0.101961 0 0 0 0 0.101961 0 0 0 1 0"/>
<feBlend mode="normal" in2="BackgroundImageFix" result="effect1_dropShadow_3_1869"/>
<feBlend mode="normal" in="SourceGraphic" in2="effect1_dropShadow_3_1869" result="shape"/>
</filter>
<filter id="filter29_d_3_1869" x="241.637" y="116" width="28.0911" height="43" filterUnits="userSpaceOnUse" color-interpolation-filters="sRGB">
<feFlood flood-opacity="0" result="BackgroundImageFix"/>
<feColorMatrix in="SourceAlpha" type="matrix" values="0 0 0 0 0 0 0 0 0 0 0 0 0 0 0 0 0 0 127 0" result="hardAlpha"/>
<feOffset dy="1"/>
<feColorMatrix type="matrix" values="0 0 0 0 0.101961 0 0 0 0 0.101961 0 0 0 0 0.101961 0 0 0 1 0"/>
<feBlend mode="normal" in2="BackgroundImageFix" result="effect1_dropShadow_3_1869"/>
<feBlend mode="normal" in="SourceGraphic" in2="effect1_dropShadow_3_1869" result="shape"/>
</filter>
<filter id="filter30_d_3_1869" x="275.728" y="116" width="28.0911" height="43" filterUnits="userSpaceOnUse" color-interpolation-filters="sRGB">
<feFlood flood-opacity="0" result="BackgroundImageFix"/>
<feColorMatrix in="SourceAlpha" type="matrix" values="0 0 0 0 0 0 0 0 0 0 0 0 0 0 0 0 0 0 127 0" result="hardAlpha"/>
<feOffset dy="1"/>
<feColorMatrix type="matrix" values="0 0 0 0 0.101961 0 0 0 0 0.101961 0 0 0 0 0.101961 0 0 0 1 0"/>
<feBlend mode="normal" in2="BackgroundImageFix" result="effect1_dropShadow_3_1869"/>
<feBlend mode="normal" in="SourceGraphic" in2="effect1_dropShadow_3_1869" result="shape"/>
</filter>
<filter id="filter31_d_3_1869" x="309.819" y="116" width="28.0911" height="43" filterUnits="userSpaceOnUse" color-interpolation-filters="sRGB">
<feFlood flood-opacity="0" result="BackgroundImageFix"/>
<feColorMatrix in="SourceAlpha" type="matrix" values="0 0 0 0 0 0 0 0 0 0 0 0 0 0 0 0 0 0 127 0" result="hardAlpha"/>
<feOffset dy="1"/>
<feColorMatrix type="matrix" values="0 0 0 0 0.101961 0 0 0 0 0.101961 0 0 0 0 0.101961 0 0 0 1 0"/>
<feBlend mode="normal" in2="BackgroundImageFix" result="effect1_dropShadow_3_1869"/>
<feBlend mode="normal" in="SourceGraphic" in2="effect1_dropShadow_3_1869" result="shape"/>
</filter>
<filter id="filter32_d_3_1869" x="343.91" y="116" width="28.0901" height="43" filterUnits="userSpaceOnUse" color-interpolation-filters="sRGB">
<feFlood flood-opacity="0" result="BackgroundImageFix"/>
<feColorMatrix in="SourceAlpha" type="matrix" values="0 0 0 0 0 0 0 0 0 0 0 0 0 0 0 0 0 0 127 0" result="hardAlpha"/>
<feOffset dy="1"/>
<feColorMatrix type="matrix" values="0 0 0 0 0.101961 0 0 0 0 0.101961 0 0 0 0 0.101961 0 0 0 1 0"/>
<feBlend mode="normal" in2="BackgroundImageFix" result="effect1_dropShadow_3_1869"/>
<feBlend mode="normal" in="SourceGraphic" in2="effect1_dropShadow_3_1869" result="shape"/>
</filter>
<filter id="filter33_d_3_1869" x="3" y="170" width="42" height="43" filterUnits="userSpaceOnUse" color-interpolation-filters="sRGB">
<feFlood flood-opacity="0" result="BackgroundImageFix"/>
<feColorMatrix in="SourceAlpha" type="matrix" values="0 0 0 0 0 0 0 0 0 0 0 0 0 0 0 0 0 0 127 0" result="hardAlpha"/>
<feOffset dy="1"/>
<feColorMatrix type="matrix" values="0 0 0 0 0.101961 0 0 0 0 0.101961 0 0 0 0 0.101961 0 0 0 1 0"/>
<feBlend mode="normal" in2="BackgroundImageFix" result="effect1_dropShadow_3_1869"/>
<feBlend mode="normal" in="SourceGraphic" in2="effect1_dropShadow_3_1869" result="shape"/>
</filter>
<filter id="filter34_d_3_1869" x="51" y="170" width="42" height="43" filterUnits="userSpaceOnUse" color-interpolation-filters="sRGB">
<feFlood flood-opacity="0" result="BackgroundImageFix"/>
<feColorMatrix in="SourceAlpha" type="matrix" values="0 0 0 0 0 0 0 0 0 0 0 0 0 0 0 0 0 0 127 0" result="hardAlpha"/>
<feOffset dy="1"/>
<feColorMatrix type="matrix" values="0 0 0 0 0.101961 0 0 0 0 0.101961 0 0 0 0 0.101961 0 0 0 1 0"/>
<feBlend mode="normal" in2="BackgroundImageFix" result="effect1_dropShadow_3_1869"/>
<feBlend mode="normal" in="SourceGraphic" in2="effect1_dropShadow_3_1869" result="shape"/>
</filter>
<filter id="filter35_d_3_1869" x="99" y="170" width="177" height="43" filterUnits="userSpaceOnUse" color-interpolation-filters="sRGB">
<feFlood flood-opacity="0" result="BackgroundImageFix"/>
<feColorMatrix in="SourceAlpha" type="matrix" values="0 0 0 0 0 0 0 0 0 0 0 0 0 0 0 0 0 0 127 0" result="hardAlpha"/>
<feOffset dy="1"/>
<feColorMatrix type="matrix" values="0 0 0 0 0.101961 0 0 0 0 0.101961 0 0 0 0 0.101961 0 0 0 1 0"/>
<feBlend mode="normal" in2="BackgroundImageFix" result="effect1_dropShadow_3_1869"/>
<feBlend mode="normal" in="SourceGraphic" in2="effect1_dropShadow_3_1869" result="shape"/>
</filter>
<filter id="filter36_d_3_1869" x="282" y="170" width="90" height="43" filterUnits="userSpaceOnUse" color-interpolation-filters="sRGB">
<feFlood flood-opacity="0" result="BackgroundImageFix"/>
<feColorMatrix in="SourceAlpha" type="matrix" values="0 0 0 0 0 0 0 0 0 0 0 0 0 0 0 0 0 0 127 0" result="hardAlpha"/>
<feOffset dy="1"/>
<feColorMatrix type="matrix" values="0 0 0 0 0.101961 0 0 0 0 0.101961 0 0 0 0 0.101961 0 0 0 1 0"/>
<feBlend mode="normal" in2="BackgroundImageFix" result="effect1_dropShadow_3_1869"/>
<feBlend mode="normal" in="SourceGraphic" in2="effect1_dropShadow_3_1869" result="shape"/>
</filter>
</defs>
</svg>
