<svg width="28" height="28" viewBox="0 0 28 28" fill="none" xmlns="http://www.w3.org/2000/svg">
<path d="M13.9999 0.666748C11.4139 0.671661 8.88508 1.4285 6.72154 2.84507C4.558 4.26164 2.8531 6.2768 1.81449 8.64511C0.775884 11.0134 0.448404 13.6326 0.871937 16.1838C1.29547 18.7349 2.45174 21.1078 4.1999 23.0134C5.44847 24.3668 6.96382 25.4469 8.65049 26.1857C10.3371 26.9245 12.1585 27.3059 13.9999 27.3059C15.8413 27.3059 17.6627 26.9245 19.3493 26.1857C21.036 25.4469 22.5513 24.3668 23.7999 23.0134C25.5481 21.1078 26.7043 18.7349 27.1279 16.1838C27.5514 13.6326 27.2239 11.0134 26.1853 8.64511C25.1467 6.2768 23.4418 4.26164 21.2783 2.84507C19.1147 1.4285 16.5859 0.671661 13.9999 0.666748ZM13.9999 24.6668C11.2379 24.6626 8.58512 23.5871 6.5999 21.6667C7.20263 20.1995 8.22795 18.9445 9.54557 18.0613C10.8632 17.1781 12.4136 16.7065 13.9999 16.7065C15.5862 16.7065 17.1366 17.1781 18.4542 18.0613C19.7719 18.9445 20.7972 20.1995 21.3999 21.6667C19.4147 23.5871 16.7619 24.6626 13.9999 24.6668ZM11.3332 11.3334C11.3332 10.806 11.4896 10.2904 11.7826 9.8519C12.0757 9.41336 12.4921 9.07157 12.9794 8.86974C13.4667 8.6679 14.0029 8.61509 14.5201 8.71799C15.0374 8.82088 15.5126 9.07486 15.8855 9.4478C16.2585 9.82074 16.5124 10.2959 16.6153 10.8132C16.7182 11.3305 16.6654 11.8666 16.4636 12.3539C16.2617 12.8412 15.92 13.2577 15.4814 13.5507C15.0429 13.8437 14.5273 14.0001 13.9999 14.0001C13.2927 14.0001 12.6144 13.7191 12.1143 13.219C11.6142 12.7189 11.3332 12.0407 11.3332 11.3334ZM23.2132 19.3334C22.0219 17.2958 20.1884 15.7108 17.9999 14.8267C18.6788 14.057 19.1211 13.1076 19.2739 12.0927C19.4266 11.0777 19.2832 10.0402 18.8609 9.10474C18.4386 8.16926 17.7553 7.37549 16.8931 6.8187C16.0309 6.26191 15.0263 5.96575 13.9999 5.96575C12.9735 5.96575 11.9689 6.26191 11.1067 6.8187C10.2445 7.37549 9.5612 8.16926 9.1389 9.10474C8.71661 10.0402 8.57322 11.0777 8.72594 12.0927C8.87866 13.1076 9.32101 14.057 9.9999 14.8267C7.81137 15.7108 5.97786 17.2958 4.78657 19.3334C3.83716 17.7162 3.33553 15.8754 3.33324 14.0001C3.33324 11.1711 4.45704 8.458 6.45743 6.45761C8.45782 4.45722 11.1709 3.33342 13.9999 3.33342C16.8289 3.33342 19.542 4.45722 21.5424 6.45761C23.5428 8.458 24.6666 11.1711 24.6666 14.0001C24.6643 15.8754 24.1626 17.7162 23.2132 19.3334Z" fill="white"/>
</svg>
