<svg width="18" height="18" viewBox="0 0 18 18" fill="none" xmlns="http://www.w3.org/2000/svg">
<path fill-rule="evenodd" clip-rule="evenodd" d="M16.9183 0.000106812C17.516 0.000106812 18.0005 0.484619 18.0005 1.0823V16.9177C18.0005 17.5154 17.516 17.9999 16.9183 17.9999H14.8004C14.2028 17.9999 13.7182 17.5154 13.7182 16.9177V10.1516C13.6799 10.1783 13.6399 10.2037 13.5984 10.2277L2.4365 16.6857C1.35431 17.3119 0.000278473 16.5309 0.000278473 15.2807V2.36464C0.000278473 1.11436 1.35431 0.333443 2.4365 0.959574L13.5984 7.41759C13.6399 7.44163 13.6799 7.46705 13.7182 7.49374V1.0823C13.7182 0.484621 14.2028 0.000106812 14.8004 0.000106812H16.9183Z" fill="white"/>
</svg>
