<svg width="24" height="22" viewBox="0 0 24 22" fill="none" xmlns="http://www.w3.org/2000/svg">
<path d="M11.254 3.14796L11.9971 3.70072L12.7423 3.15069C13.9106 2.28833 15.3487 1.87194 16.7971 1.97666C18.243 2.0812 19.604 2.69824 20.6355 3.71665C21.1946 4.28425 21.6364 4.95646 21.9356 5.69489C22.2358 6.43554 22.3866 7.22819 22.3794 8.0273C22.3722 8.82642 22.2072 9.61623 21.8937 10.3514C21.5803 11.0865 21.1247 11.7524 20.5531 12.3109L20.5461 12.3178L20.5391 12.3248L13.5433 19.3789C13.5427 19.3796 13.542 19.3802 13.5413 19.3809C13.1196 19.801 12.5486 20.0369 11.9533 20.0369C11.358 20.0369 10.787 19.801 10.3653 19.3809C10.3647 19.3802 10.364 19.3796 10.3633 19.3789L3.36754 12.3248L3.36757 12.3247L3.36078 12.318C2.27239 11.2372 1.63393 9.78416 1.57398 8.25148C1.51402 6.71879 2.03703 5.22031 3.03767 4.0578C4.03832 2.89528 5.44227 2.15509 6.96681 1.98627C8.49136 1.81745 10.0232 2.23254 11.254 3.14796Z" stroke="white" stroke-width="2.5"/>
</svg>
