<svg width="24" height="18" viewBox="0 0 24 18" fill="none" xmlns="http://www.w3.org/2000/svg">
<path d="M23.4394 13.3149L19.7392 10.9503C18.9923 10.4731 18.055 11.0704 18.055 12.0266V13.4313H16.3839C14.8588 13.4313 13.4822 12.4965 12.7911 10.9918L10.6509 6.3318C9.66234 4.17927 7.69303 2.8421 5.51147 2.8421H0.867516C0.388406 2.8421 0 3.27202 0 3.80228C0 4.33254 0.388406 4.7625 0.867516 4.7625H5.51152C7.0366 4.7625 8.41322 5.69725 9.10435 7.20201L9.97449 9.09672C9.1336 10.9276 8.33363 13.4309 5.51152 13.4309C5.03241 13.4309 4.644 13.8609 4.644 14.3912C4.644 14.9215 5.03241 15.3514 5.51152 15.3514C7.69308 15.3514 9.66239 14.0142 10.6509 11.8617L10.9476 11.2156L11.2445 11.862C12.233 14.0145 14.2023 15.3517 16.3839 15.3517H18.055V16.7558C18.055 17.7106 18.9912 18.3101 19.7392 17.832L23.4394 15.4674C24.1862 14.9902 24.1875 13.793 23.4394 13.3149Z" fill="#82D7FB"/>
<path d="M5.49976 13.5H1.00009C0.513446 13.5 0.118896 13.9242 0.118896 14.4474C0.118896 14.9706 0.513446 15.3947 1.00013 15.3947L5.49998 15.3947C5.98666 15.3947 6.38121 14.9706 6.38121 14.4474C6.38121 13.9242 5.98649 13.5 5.49976 13.5Z" fill="#82D7FB"/>
<path d="M19.6998 7.40255L23.4342 4.91964C24.188 4.41845 24.1892 3.16133 23.4342 2.65928L19.6998 0.176316C18.9457 -0.325083 18 0.302605 18 1.30644V6.27243C18 7.27484 18.9447 7.9046 19.6998 7.40255Z" fill="#82D7FB"/>
<path d="M17.1429 4.72067V2.8421C15.0219 2.8421 13.2597 3.50647 12 5.56537C12.0691 5.70992 11.9326 5.41331 12.9236 7.57894C14.1465 4.90648 15.5998 4.72067 17.1429 4.72067Z" fill="#82D7FB"/>
</svg>
