<svg width="22" height="22" viewBox="0 0 22 22" fill="none" xmlns="http://www.w3.org/2000/svg">
<path fill-rule="evenodd" clip-rule="evenodd" d="M11.0001 0.166626C8.85746 0.166626 6.76294 0.80199 4.98141 1.99237C3.19988 3.18275 1.81134 4.87469 0.991391 6.85422C0.171442 8.83375 -0.0430942 11.012 0.374912 13.1134C0.792919 15.2149 1.82469 17.1452 3.33976 18.6603C4.85483 20.1754 6.78515 21.2071 8.88661 21.6251C10.9881 22.0431 13.1663 21.8286 15.1458 21.0087C17.1254 20.1887 18.8173 18.8002 20.0077 17.0186C21.1981 15.2371 21.8334 13.1426 21.8334 11C21.8334 9.5773 21.5532 8.16858 21.0088 6.85422C20.4644 5.53986 19.6664 4.3456 18.6604 3.33964C17.6544 2.33367 16.4602 1.53569 15.1458 0.991264C13.8315 0.446838 12.4227 0.166626 11.0001 0.166626ZM14.6139 9.38204L10.1677 6.67919C9.89749 6.5151 9.59097 6.42867 9.27893 6.42859C8.9669 6.4285 8.66034 6.51476 8.39003 6.67871C8.11972 6.84265 7.89518 7.07851 7.73895 7.36259C7.58273 7.64667 7.50032 7.96898 7.5 8.29716V13.7029C7.50032 14.0309 7.58265 14.353 7.73873 14.637C7.8948 14.921 8.11914 15.1568 8.38924 15.3208C8.6596 15.485 8.96629 15.5714 9.27848 15.5714C9.59067 15.5714 9.89736 15.485 10.1677 15.3208L14.6139 12.618C14.8834 12.4536 15.1071 12.2176 15.2626 11.9336C15.4181 11.6496 15.5 11.3277 15.5 11C15.5 10.6723 15.4181 10.3504 15.2626 10.0664C15.1071 9.78248 14.8834 9.54647 14.6139 9.38204Z" fill="#82D7FB"/>
</svg>
