<?xml version="1.0" encoding="utf-8"?>
<!-- Generator: Adobe Illustrator 25.2.1, SVG Export Plug-In . SVG Version: 6.00 Build 0)  -->
<svg version="1.1" id="Слой_1" xmlns="http://www.w3.org/2000/svg" xmlns:xlink="http://www.w3.org/1999/xlink" x="0px" y="0px"
	 viewBox="0 0 343 8" style="enable-background:new 0 0 343 8;" xml:space="preserve">
<style type="text/css">
	.st0{fill:#787D81;}
	.st1{fill:#82D7FB;}
	.st2{fill:#C5467E;}
</style>
<path class="st0" d="M4,0h335c2.2,0,4,1.8,4,4l0,0c0,2.2-1.8,4-4,4H4C1.8,8,0,6.2,0,4l0,0C0,1.8,1.8,0,4,0z"/>
<path class="st1" d="M4.1,0h224.3c2.2,0,4.1,1.8,4.1,4v0c0,2.2-1.8,4-4.1,4H4.1C1.8,8,0,6.2,0,4v0C0,1.8,1.8,0,4.1,0z"/>
<rect x="229" y="0" class="st2" width="45" height="8"/>
</svg>
