<svg width="26" height="26" viewBox="0 0 26 26" fill="none" xmlns="http://www.w3.org/2000/svg">
<path d="M16.2469 7.18984C15.2216 7.18699 14.2101 7.4326 13.2943 7.90677C12.3785 8.38094 11.5842 9.07033 10.9758 9.91908C10.3673 10.7678 9.96183 11.7521 9.79215 12.7921C9.62247 13.832 9.69338 14.8985 9.99914 15.905C10.3049 16.9116 10.8369 17.8299 11.552 18.5855C12.2672 19.3412 13.1453 19.9129 14.1153 20.2545C15.0854 20.596 16.12 20.6977 17.1353 20.5513C18.1507 20.4049 19.1182 20.0146 19.9596 19.4119L22.4535 22.0972C22.5391 22.1892 22.6426 22.2618 22.7572 22.3101C22.8718 22.3585 22.995 22.3815 23.1188 22.3778C23.3435 22.3764 23.5595 22.2885 23.7243 22.1314C23.8934 21.9665 23.9925 21.7396 24 21.5C24.0075 21.2604 23.9227 21.0274 23.7642 20.8517L21.2836 18.1801C22.0771 17.2015 22.5827 16.0105 22.7413 14.7468C22.8998 13.483 22.7047 12.199 22.1787 11.0453C21.6528 9.8916 20.8179 8.91609 19.7719 8.2332C18.726 7.55031 17.5124 7.18838 16.2735 7.18984H16.2469ZM19.7333 17.2289C19.0827 17.9497 18.236 18.4521 17.3037 18.6706C16.3713 18.8891 15.3966 18.8135 14.5066 18.4537C13.6166 18.0939 12.8528 17.4666 12.3146 16.6536C11.7764 15.8407 11.4889 14.8798 11.4896 13.8962C11.4902 13.0994 11.68 12.3148 12.0425 11.6106C12.4049 10.9064 12.9291 10.3039 13.5695 9.85543C14.2099 9.40699 14.947 9.12618 15.7169 9.03742C16.4868 8.94865 17.2662 9.05462 17.9872 9.34611C18.7082 9.63759 19.3491 10.1058 19.8542 10.71C20.3592 11.3142 20.7132 12.0361 20.8853 12.813C21.0574 13.5899 21.0424 14.3983 20.8417 15.1678C20.6409 15.9374 20.2604 16.645 19.7333 17.2289Z" fill="#82D7FB" stroke="#82D7FB" stroke-width="0.4"/>
<path d="M2.96158 20.2573H7.93176C8.15235 20.2376 8.35773 20.1335 8.50737 19.9657C8.657 19.7978 8.74002 19.5783 8.74002 19.3506C8.74002 19.1228 8.657 18.9034 8.50737 18.7355C8.35773 18.5676 8.15235 18.4636 7.93176 18.4439H2.96158C2.83937 18.4329 2.71628 18.4482 2.60014 18.4888C2.48399 18.5295 2.37732 18.5944 2.2869 18.6797C2.19648 18.765 2.12429 18.8686 2.0749 18.9841C2.0255 19.0996 2 19.2244 2 19.3506C2 19.4768 2.0255 19.6015 2.0749 19.717C2.12429 19.8325 2.19648 19.9362 2.2869 20.0215C2.37732 20.1067 2.48399 20.1717 2.60014 20.2123C2.71628 20.2529 2.83937 20.2682 2.96158 20.2573V20.2573Z" fill="#82D7FB" stroke="#82D7FB" stroke-width="0.4"/>
<path d="M2.96158 15.437H6.16192C6.2775 15.4379 6.39211 15.4152 6.49906 15.3701C6.60602 15.325 6.70319 15.2585 6.78492 15.1745C6.86665 15.0904 6.93131 14.9905 6.97514 14.8804C7.01896 14.7704 7.04107 14.6526 7.04019 14.5337C7.04019 14.2935 6.94787 14.063 6.78336 13.8925C6.61884 13.722 6.39546 13.6253 6.16192 13.6235H2.96158C2.83937 13.6126 2.71628 13.6279 2.60014 13.6685C2.48399 13.7091 2.37732 13.7741 2.2869 13.8594C2.19648 13.9447 2.12429 14.0483 2.0749 14.1638C2.0255 14.2793 2 14.4041 2 14.5303C2 14.6564 2.0255 14.7812 2.0749 14.8967C2.12429 15.0122 2.19648 15.1159 2.2869 15.2011C2.37732 15.2864 2.48399 15.3514 2.60014 15.392C2.71628 15.4326 2.83937 15.4479 2.96158 15.437V15.437Z" fill="#82D7FB" stroke="#82D7FB" stroke-width="0.4"/>
<path d="M12.8585 4H2.87826C2.64533 4 2.42194 4.09517 2.25724 4.26457C2.09253 4.43398 2 4.66374 2 4.90331C2 5.14288 2.09253 5.37264 2.25724 5.54205C2.42194 5.71145 2.64533 5.80662 2.87826 5.80662H12.8585C13.0915 5.80662 13.3149 5.71145 13.4796 5.54205C13.6443 5.37264 13.7368 5.14288 13.7368 4.90331C13.7368 4.66374 13.6443 4.43398 13.4796 4.26457C13.3149 4.09517 13.0915 4 12.8585 4V4Z" fill="#82D7FB" stroke="#82D7FB" stroke-width="0.4"/>
<path d="M2.80826 8.80664C2.58767 8.82637 2.38228 8.93044 2.23265 9.0983C2.08301 9.26617 2 9.48563 2 9.71337C2 9.94111 2.08301 10.1606 2.23265 10.3284C2.38228 10.4963 2.58767 10.6004 2.80826 10.6201H7.46572C7.68631 10.6004 7.8917 10.4963 8.04133 10.3284C8.19097 10.1606 8.27398 9.94111 8.27398 9.71337C8.27398 9.48563 8.19097 9.26617 8.04133 9.0983C7.8917 8.93044 7.68631 8.82637 7.46572 8.80664H2.80826Z" fill="#82D7FB" stroke="#82D7FB" stroke-width="0.4"/>
</svg>
