<svg width="22" height="21" viewBox="0 0 22 21" fill="none" xmlns="http://www.w3.org/2000/svg">
<path d="M17.0233 20.75C16.8501 20.7507 16.6792 20.7098 16.525 20.6308L11 17.7383L5.47499 20.6308C5.29558 20.7252 5.0933 20.7673 4.89115 20.7524C4.689 20.7375 4.49509 20.6662 4.33145 20.5465C4.16781 20.4269 4.04102 20.2638 3.96549 20.0757C3.88995 19.8876 3.8687 19.6821 3.90415 19.4825L4.98749 13.3833L0.524154 9.04998C0.384899 8.91102 0.286115 8.73676 0.2384 8.5459C0.190686 8.35504 0.195844 8.1548 0.25332 7.96665C0.31611 7.77411 0.431611 7.60303 0.586716 7.47282C0.741821 7.34261 0.93032 7.25848 1.13082 7.22998L7.30582 6.33082L10.025 0.773316C10.1137 0.590156 10.2522 0.435687 10.4246 0.327604C10.5971 0.219522 10.7965 0.162197 11 0.162197C11.2035 0.162197 11.4029 0.219522 11.5753 0.327604C11.7478 0.435687 11.8863 0.590156 11.975 0.773316L14.7267 6.31998L20.9017 7.21915C21.1022 7.24765 21.2907 7.33178 21.4458 7.46199C21.6009 7.5922 21.7164 7.76328 21.7792 7.95582C21.8366 8.14396 21.8418 8.34421 21.7941 8.53507C21.7464 8.72592 21.6476 8.90018 21.5083 9.03915L17.045 13.3725L18.1283 19.4716C18.167 19.6747 18.1467 19.8847 18.07 20.0766C17.9932 20.2686 17.8631 20.4346 17.695 20.555C17.4988 20.6925 17.2626 20.761 17.0233 20.75Z" fill="#82D7FB"/>
</svg>
