<svg width="23" height="20" viewBox="0 0 23 20" fill="none" xmlns="http://www.w3.org/2000/svg">
<path d="M8.80395 19.4909C9.09195 19.7818 9.45195 19.9272 9.81195 19.9272C10.172 19.9272 10.532 19.7818 10.82 19.4909C11.396 18.9091 11.396 18 10.82 17.4182L5.13195 11.6363H20.828C21.62 11.6363 22.268 10.9818 22.268 10.1818C22.268 9.38179 21.62 8.72725 20.828 8.72725H5.13195L10.856 2.94543C11.432 2.36361 11.432 1.45452 10.856 0.872704C10.28 0.290886 9.37995 0.290886 8.80395 0.872704L0.631951 9.16361C0.0559512 9.74543 0.0559512 10.6545 0.631951 11.2363L8.80395 19.4909Z" fill="white"/>
</svg>
