<svg width="17" height="20" viewBox="0 0 17 20" fill="none" xmlns="http://www.w3.org/2000/svg">
<path d="M2.08328 19.815C1.79597 19.815 1.52042 19.7009 1.31725 19.4977C1.11409 19.2945 0.99995 19.019 0.99995 18.7317L0.83745 2.85C0.824405 2.52754 0.87524 2.20568 0.987031 1.90294C1.09882 1.6002 1.26936 1.32254 1.48884 1.08594C1.70833 0.849347 1.97242 0.658476 2.26593 0.524309C2.55944 0.390142 2.87659 0.315327 3.19912 0.304167L14.5622 0.296354C14.8851 0.301994 15.2038 0.371204 15.5 0.500029C15.7962 0.628853 16.0641 0.81477 16.2885 1.04716C16.5128 1.27955 16.6892 1.55386 16.8075 1.85442C16.9258 2.15497 16.9837 2.4759 16.978 2.79885L17 18.6342C17.0019 18.824 16.9538 19.011 16.8606 19.1764C16.7675 19.3419 16.6325 19.4799 16.4692 19.5767C16.3045 19.6718 16.1177 19.7218 15.9275 19.7218C15.7373 19.7218 15.5505 19.6718 15.3858 19.5767L8.88077 16.1533L2.63578 19.6525C2.46608 19.7473 2.27728 19.8028 2.08328 19.815ZM8.83744 13.8025C9.02568 13.8028 9.21122 13.8474 9.37911 13.9325L14.8117 16.76L14.8113 2.77719C14.8113 2.56052 14.6705 2.40885 14.5838 2.41969L3.20995 2.47083C3.12328 2.47083 3.00412 2.61167 3.00412 2.82833L3.13412 16.8033L8.28494 13.9542C8.45334 13.8577 8.64342 13.8056 8.83744 13.8025Z" fill="#787D81"/>
</svg>
