<svg width="64" height="64" viewBox="0 0 64 64" fill="none" xmlns="http://www.w3.org/2000/svg">
<rect width="64" height="64" rx="32" fill="#787880" fill-opacity="0.32"/>
<path d="M44.3783 37.775C44.7542 36.8875 44.9044 35.9207 44.8153 34.9611C44.7263 34.0014 44.4008 33.0787 43.8681 32.2756C43.3353 31.4724 42.6119 30.8137 41.7624 30.3585C40.9129 29.9032 39.9638 29.6655 39 29.6667H37.53C37.0538 27.7912 36.0064 26.1102 34.5329 24.8561C33.0593 23.602 31.2325 22.8369 29.305 22.6667M23.8333 23.8333C22.0111 24.8409 20.5781 26.4289 19.7624 28.3447C18.9466 30.2605 18.7949 32.3941 19.3314 34.4061C19.868 36.418 21.0619 38.1928 22.7232 39.448C24.3846 40.7033 26.418 41.3669 28.5 41.3333H39C39.6764 41.3325 40.3475 41.2141 40.9833 40.9833" stroke="#82D7FB" stroke-width="2" stroke-linecap="round" stroke-linejoin="round"/>
<path d="M19.1667 19.1667L44.8334 44.8333" stroke="#82D7FB" stroke-width="2" stroke-linecap="round" stroke-linejoin="round"/>
</svg>
