<svg width="18" height="18" viewBox="0 0 18 18" fill="none" xmlns="http://www.w3.org/2000/svg">
<path fill-rule="evenodd" clip-rule="evenodd" d="M1.08219 0.000106812C0.484514 0.000106812 0 0.484619 0 1.0823V16.9177C0 17.5154 0.484514 17.9999 1.08219 17.9999H3.20006C3.79773 17.9999 4.28225 17.5154 4.28225 16.9177V10.1516C4.3206 10.1783 4.36054 10.2037 4.40209 10.2277L15.564 16.6857C16.6462 17.3119 18.0002 16.5309 18.0002 15.2807V2.36464C18.0002 1.11436 16.6462 0.333443 15.564 0.959574L4.40209 7.41759C4.36054 7.44163 4.3206 7.46705 4.28225 7.49374V1.0823C4.28225 0.484621 3.79773 0.000106812 3.20006 0.000106812H1.08219Z" fill="white"/>
</svg>
