<svg width="22" height="22" viewBox="0 0 22 22" fill="none" xmlns="http://www.w3.org/2000/svg">
<path d="M11.0001 0.166662C8.85746 0.166662 6.76294 0.802026 4.98141 1.99241C3.19988 3.18279 1.81134 4.87472 0.991391 6.85426C0.171442 8.83379 -0.0430942 11.012 0.374912 13.1135C0.792919 15.2149 1.82469 17.1453 3.33976 18.6603C4.85483 20.1754 6.78515 21.2072 8.88661 21.6252C10.9881 22.0432 13.1663 21.8286 15.1458 21.0087C17.1254 20.1887 18.8173 18.8002 20.0077 17.0187C21.1981 15.2371 21.8334 13.1426 21.8334 11C21.8334 9.57734 21.5532 8.16862 21.0088 6.85426C20.4644 5.5399 19.6664 4.34564 18.6604 3.33967C17.6544 2.3337 16.4602 1.53573 15.1458 0.991301C13.8315 0.446875 12.4227 0.166662 11.0001 0.166662ZM11.0001 19.6667C9.28598 19.6667 7.61037 19.1584 6.18514 18.2061C4.75992 17.2538 3.64909 15.9002 2.99313 14.3166C2.33717 12.733 2.16554 10.9904 2.49995 9.30921C2.83435 7.62804 3.65977 6.08379 4.87183 4.87174C6.08388 3.65968 7.62813 2.83426 9.3093 2.49986C10.9905 2.16545 12.733 2.33708 14.3167 2.99304C15.9003 3.649 17.2538 4.75983 18.2062 6.18505C19.1585 7.61028 19.6667 9.28589 19.6667 11C19.6667 13.2985 18.7537 15.5029 17.1283 17.1283C15.503 18.7536 13.2986 19.6667 11.0001 19.6667Z" fill="#787D81"/>
<path d="M10.3343 7.21927L14.2247 9.58427C14.4605 9.72815 14.6562 9.93465 14.7923 10.1831C14.9284 10.4316 15 10.7133 15 11C15 11.2867 14.9284 11.5684 14.7923 11.8169C14.6562 12.0653 14.4605 12.2719 14.2247 12.4157L10.3343 14.7807C10.0977 14.9244 9.82933 15 9.55617 15C9.283 15 9.01465 14.9244 8.77808 14.7807C8.54175 14.6372 8.34545 14.4309 8.20889 14.1824C8.07232 13.9339 8.00028 13.652 8 13.365V8.635C8.00028 8.34785 8.07239 8.06582 8.20909 7.81725C8.34578 7.56868 8.54225 7.3623 8.77877 7.21885C9.01529 7.0754 9.28354 6.99993 9.55657 7C9.8296 7.00007 10.0978 7.0757 10.3343 7.21927Z" fill="#787D81"/>
</svg>
