<svg width="24" height="18" viewBox="0 0 24 18" fill="none" xmlns="http://www.w3.org/2000/svg">
<path d="M21.2094 10.2727C20.7722 10.2727 20.4188 10.6189 20.4188 11.0455C20.4188 12.3236 19.3546 13.3636 18.0469 13.3636H5.53433V11.0455C5.53433 10.7487 5.35961 10.4775 5.08685 10.3492C4.81093 10.221 4.48755 10.2565 4.24958 10.442L0.296473 13.5329C0.109084 13.6797 0 13.9015 0 14.1364C0 14.3713 0.109118 14.593 0.296473 14.7399L4.24958 17.8308C4.39267 17.942 4.56742 18 4.7437 18C4.85992 18 4.97774 17.9745 5.08682 17.9235C5.35958 17.7952 5.5343 17.524 5.5343 17.2273V14.9091H18.0469C20.2266 14.9091 22 13.1759 22 11.0455C22 10.6189 21.6466 10.2727 21.2094 10.2727Z" fill="white"/>
<path d="M2.79063 7.72727C3.22785 7.72727 3.58126 7.38108 3.58126 6.95451C3.58126 5.67637 4.64543 4.63624 5.95311 4.63624H18.4657V6.95451C18.4657 7.25125 18.6404 7.52247 18.9132 7.65077C19.0231 7.70177 19.1401 7.72727 19.2563 7.72727C19.4326 7.72727 19.6073 7.66933 19.7504 7.55803L23.7035 4.467C23.8909 4.32017 24 4.09839 24 3.86347C24 3.62855 23.8909 3.40678 23.7035 3.25995L19.7504 0.168918C19.5133 -0.016529 19.1859 -0.0520909 18.9132 0.0761778C18.6404 0.204446 18.4657 0.475693 18.4657 0.772441V3.09071H5.95311C3.77337 3.09071 2 4.82401 2 6.95451C2 7.38108 2.35341 7.72727 2.79063 7.72727Z" fill="white"/>
</svg>
