<svg width="24" height="20" viewBox="0 0 24 20" fill="none" xmlns="http://www.w3.org/2000/svg">
<path d="M15.2469 4.18984C14.2216 4.18699 13.2101 4.43259 12.2943 4.90676C11.3785 5.38093 10.5842 6.07032 9.97578 6.91908C9.36733 7.76783 8.96183 8.75207 8.79215 9.79205C8.62247 10.832 8.69338 11.8985 8.99914 12.905C9.30489 13.9116 9.83689 14.8299 10.552 15.5855C11.2672 16.3412 12.1453 16.9129 13.1153 17.2545C14.0854 17.596 15.12 17.6977 16.1353 17.5513C17.1507 17.4049 18.1182 17.0146 18.9596 16.4119L21.4535 19.0972C21.5391 19.1892 21.6426 19.2618 21.7572 19.3101C21.8718 19.3584 21.995 19.3815 22.1188 19.3778C22.3435 19.3764 22.5595 19.2885 22.7243 19.1314C22.8934 18.9665 22.9925 18.7396 23 18.5C23.0075 18.2604 22.9227 18.0274 22.7642 17.8517L20.2836 15.1801C21.0771 14.2015 21.5827 13.0105 21.7413 11.7468C21.8998 10.483 21.7047 9.19898 21.1787 8.04529C20.6528 6.89159 19.8179 5.91608 18.7719 5.23319C17.726 4.55031 16.5124 4.18837 15.2735 4.18984H15.2469ZM18.7333 14.2289C18.0827 14.9497 17.236 15.4521 16.3037 15.6706C15.3713 15.889 14.3966 15.8135 13.5066 15.4537C12.6166 15.0939 11.8528 14.4666 11.3146 13.6536C10.7764 12.8407 10.4889 11.8797 10.4896 10.8962C10.4902 10.0994 10.68 9.31481 11.0425 8.6106C11.4049 7.90638 11.9291 7.30387 12.5695 6.85543C13.2099 6.40698 13.947 6.12618 14.7169 6.03741C15.4868 5.94865 16.2662 6.05461 16.9872 6.3461C17.7082 6.63758 18.3491 7.10577 18.8542 7.70996C19.3592 8.31415 19.7132 9.03607 19.8853 9.81297C20.0574 10.5899 20.0424 11.3982 19.8417 12.1678C19.6409 12.9374 19.2604 13.6449 18.7333 14.2289Z" fill="#787D81" stroke="#787D81" stroke-width="0.4"/>
<path d="M1.96158 17.2573H6.93176C7.15235 17.2376 7.35773 17.1335 7.50737 16.9657C7.657 16.7978 7.74002 16.5783 7.74002 16.3506C7.74002 16.1228 7.657 15.9034 7.50737 15.7355C7.35773 15.5676 7.15235 15.4636 6.93176 15.4439H1.96158C1.83937 15.4329 1.71628 15.4482 1.60014 15.4888C1.48399 15.5295 1.37732 15.5944 1.2869 15.6797C1.19648 15.765 1.12429 15.8686 1.0749 15.9841C1.0255 16.0996 1 16.2244 1 16.3506C1 16.4768 1.0255 16.6015 1.0749 16.717C1.12429 16.8325 1.19648 16.9362 1.2869 17.0215C1.37732 17.1067 1.48399 17.1717 1.60014 17.2123C1.71628 17.2529 1.83937 17.2682 1.96158 17.2573Z" fill="#787D81" stroke="#787D81" stroke-width="0.4"/>
<path d="M1.96158 12.437H5.16192C5.2775 12.4379 5.39211 12.4152 5.49906 12.3701C5.60602 12.325 5.70319 12.2585 5.78492 12.1745C5.86665 12.0904 5.93131 11.9905 5.97514 11.8804C6.01896 11.7704 6.04107 11.6526 6.04019 11.5337C6.04019 11.2935 5.94787 11.063 5.78336 10.8925C5.61884 10.722 5.39546 10.6253 5.16192 10.6235H1.96158C1.83937 10.6126 1.71628 10.6279 1.60014 10.6685C1.48399 10.7091 1.37732 10.7741 1.2869 10.8594C1.19648 10.9447 1.12429 11.0483 1.0749 11.1638C1.0255 11.2793 1 11.4041 1 11.5303C1 11.6564 1.0255 11.7812 1.0749 11.8967C1.12429 12.0122 1.19648 12.1159 1.2869 12.2011C1.37732 12.2864 1.48399 12.3514 1.60014 12.392C1.71628 12.4326 1.83937 12.4479 1.96158 12.437Z" fill="#787D81" stroke="#787D81" stroke-width="0.4"/>
<path d="M11.8585 1H1.87826C1.64533 1 1.42194 1.09517 1.25724 1.26457C1.09253 1.43398 1 1.66374 1 1.90331C1 2.14288 1.09253 2.37264 1.25724 2.54205C1.42194 2.71145 1.64533 2.80662 1.87826 2.80662H11.8585C12.0915 2.80662 12.3149 2.71145 12.4796 2.54205C12.6443 2.37264 12.7368 2.14288 12.7368 1.90331C12.7368 1.66374 12.6443 1.43398 12.4796 1.26457C12.3149 1.09517 12.0915 1 11.8585 1Z" fill="#787D81" stroke="#787D81" stroke-width="0.4"/>
<path d="M1.80826 5.80664C1.58767 5.82637 1.38228 5.93044 1.23265 6.0983C1.08301 6.26617 1 6.48563 1 6.71337C1 6.94111 1.08301 7.16057 1.23265 7.32844C1.38228 7.4963 1.58767 7.60037 1.80826 7.6201H6.46572C6.68631 7.60037 6.8917 7.4963 7.04133 7.32844C7.19097 7.16057 7.27398 6.94111 7.27398 6.71337C7.27398 6.48563 7.19097 6.26617 7.04133 6.0983C6.8917 5.93044 6.68631 5.82637 6.46572 5.80664H1.80826Z" fill="#787D81" stroke="#787D81" stroke-width="0.4"/>
</svg>
