<?xml version="1.0" encoding="utf-8"?>
<!-- Generator: Adobe Illustrator 25.2.1, SVG Export Plug-In . SVG Version: 6.00 Build 0)  -->
<svg width="57" height="44" version="1.1" id="Слой_1" xmlns="http://www.w3.org/2000/svg" xmlns:xlink="http://www.w3.org/1999/xlink" x="0px" y="0px"
	 viewBox="0 0 51 44" style="enable-background:new 0 0 51 44;" xml:space="preserve">
<style type="text/css">
	.st0{fill-rule:evenodd;clip-rule:evenodd;fill:#82D7FB;}
	.st1{fill-rule:evenodd;clip-rule:evenodd;fill:#FFFFFF;}
</style>
<path class="st0" d="M15.9,3.6c1.7-0.1,3.5-0.1,5.2-0.1c0,0,8.8,0,8.8,0c1.8,0,3.5,0,5.3,0.1c1.6,0.1,3.1,0.3,4.7,0.7
	c3.2,0.9,6,2.8,8.1,5.5c2,2.7,3.1,5.9,3.1,9.2c0,3.3-1.1,6.6-3.1,9.2c-2,2.7-4.9,4.6-8.1,5.5c-1.5,0.4-3.1,0.6-4.7,0.7
	c-1.7,0.1-3.5,0.1-5.2,0.1c0,0-8.8,0-8.8,0c-1.8,0-3.5,0-5.2-0.1c-1.6-0.1-3.1-0.3-4.7-0.7c-3.2-0.9-6-2.8-8.1-5.5
	C1.1,25.6,0,22.3,0,19c0-3.3,1.1-6.6,3.1-9.2c2-2.7,4.9-4.6,8.1-5.5C12.7,3.9,14.3,3.7,15.9,3.6z"/>
<g>
	<path class="st1" d="M35.5,32.5C43,32.5,49,26.5,49,19S43,5.5,35.5,5.5S22,11.5,22,19S28,32.5,35.5,32.5z"/>
</g>
</svg>
