<svg width="64" height="64" viewBox="0 0 64 64" fill="none" xmlns="http://www.w3.org/2000/svg">
<rect x="0.5" width="64" height="64" rx="32" fill="#82D7FB"/>
<path d="M32.5 34.3333C33.7887 34.3333 34.8334 33.2887 34.8334 32C34.8334 30.7113 33.7887 29.6667 32.5 29.6667C31.2114 29.6667 30.1667 30.7113 30.1667 32C30.1667 33.2887 31.2114 34.3333 32.5 34.3333Z" stroke="black" stroke-width="2" stroke-linecap="round" stroke-linejoin="round"/>
<path d="M37.4467 27.0533C38.0975 27.7034 38.6138 28.4755 38.9661 29.3252C39.3183 30.175 39.4997 31.0859 39.4997 32.0058C39.4997 32.9257 39.3183 33.8366 38.9661 34.6864C38.6138 35.5362 38.0975 36.3082 37.4467 36.9583M27.5533 36.9467C26.9025 36.2966 26.3862 35.5245 26.0339 34.6747C25.6816 33.825 25.5003 32.9141 25.5003 31.9942C25.5003 31.0743 25.6816 30.1634 26.0339 29.3136C26.3862 28.4638 26.9025 27.6918 27.5533 27.0417M40.7483 23.7517C42.9355 25.9395 44.1642 28.9064 44.1642 32C44.1642 35.0936 42.9355 38.0605 40.7483 40.2483M24.2517 40.2483C22.0645 38.0605 20.8358 35.0936 20.8358 32C20.8358 28.9064 22.0645 25.9395 24.2517 23.7517" stroke="black" stroke-width="2" stroke-linecap="round" stroke-linejoin="round"/>
</svg>
